<?xml version="1.0" encoding="utf-8" standalone="no"?>
<!DOCTYPE svg PUBLIC "-//W3C//DTD SVG 1.1//EN"
  "http://www.w3.org/Graphics/SVG/1.1/DTD/svg11.dtd">
<svg xmlns:xlink="http://www.w3.org/1999/xlink" width="720pt" height="216pt" viewBox="0 0 720 216" xmlns="http://www.w3.org/2000/svg" version="1.1">
 <metadata>
  <rdf:RDF xmlns:dc="http://purl.org/dc/elements/1.1/" xmlns:cc="http://creativecommons.org/ns#" xmlns:rdf="http://www.w3.org/1999/02/22-rdf-syntax-ns#">
   <cc:Work>
    <dc:type rdf:resource="http://purl.org/dc/dcmitype/StillImage"/>
    <dc:date>2025-05-03T17:11:34.724003</dc:date>
    <dc:format>image/svg+xml</dc:format>
    <dc:creator>
     <cc:Agent>
      <dc:title>Matplotlib v3.10.1, https://matplotlib.org/</dc:title>
     </cc:Agent>
    </dc:creator>
   </cc:Work>
  </rdf:RDF>
 </metadata>
 <defs>
  <style type="text/css">*{stroke-linejoin: round; stroke-linecap: butt}</style>
 </defs>
 <g id="figure_1">
  <g id="patch_1">
   <path d="M 0 216 
L 720 216 
L 720 0 
L 0 0 
z
" style="fill: #ffffff"/>
  </g>
  <g id="axes_1">
   <g id="patch_2">
    <path d="M 61.32774 164.481791 
L 345.122096 164.481791 
L 345.122096 33.561207 
L 61.32774 33.561207 
z
" style="fill: #ffffff"/>
   </g>
   <g id="line2d_1">
    <path d="M 73.152505 158.530856 
L 96.802035 145.049886 
L 120.451564 132.326508 
L 144.101094 119.837622 
L 167.750624 108.225633 
L 191.400153 95.977392 
L 215.049683 83.394751 
L 238.699213 70.731991 
L 262.348742 59.946066 
L 285.998272 52.766421 
L 309.647802 43.583934 
" clip-path="url(#p52bafa6ac0)" style="fill: none; stroke-dasharray: 8.325,3.6; stroke-dashoffset: 0; stroke: #51a6e1; stroke-width: 2.25"/>
    <defs>
     <path id="m5f29ddfb42" d="M 0 2.25 
C 0.596707 2.25 1.169055 2.012926 1.59099 1.59099 
C 2.012926 1.169055 2.25 0.596707 2.25 0 
C 2.25 -0.596707 2.012926 -1.169055 1.59099 -1.59099 
C 1.169055 -2.012926 0.596707 -2.25 0 -2.25 
C -0.596707 -2.25 -1.169055 -2.012926 -1.59099 -1.59099 
C -2.012926 -1.169055 -2.25 -0.596707 -2.25 0 
C -2.25 0.596707 -2.012926 1.169055 -1.59099 1.59099 
C -1.169055 2.012926 -0.596707 2.25 0 2.25 
z
" style="stroke: #51a6e1"/>
    </defs>
    <g clip-path="url(#p52bafa6ac0)">
     <use xlink:href="#m5f29ddfb42" x="73.152505" y="158.530856" style="fill: #51a6e1; stroke: #51a6e1"/>
     <use xlink:href="#m5f29ddfb42" x="96.802035" y="145.049886" style="fill: #51a6e1; stroke: #51a6e1"/>
     <use xlink:href="#m5f29ddfb42" x="120.451564" y="132.326508" style="fill: #51a6e1; stroke: #51a6e1"/>
     <use xlink:href="#m5f29ddfb42" x="144.101094" y="119.837622" style="fill: #51a6e1; stroke: #51a6e1"/>
     <use xlink:href="#m5f29ddfb42" x="167.750624" y="108.225633" style="fill: #51a6e1; stroke: #51a6e1"/>
     <use xlink:href="#m5f29ddfb42" x="191.400153" y="95.977392" style="fill: #51a6e1; stroke: #51a6e1"/>
     <use xlink:href="#m5f29ddfb42" x="215.049683" y="83.394751" style="fill: #51a6e1; stroke: #51a6e1"/>
     <use xlink:href="#m5f29ddfb42" x="238.699213" y="70.731991" style="fill: #51a6e1; stroke: #51a6e1"/>
     <use xlink:href="#m5f29ddfb42" x="262.348742" y="59.946066" style="fill: #51a6e1; stroke: #51a6e1"/>
     <use xlink:href="#m5f29ddfb42" x="285.998272" y="52.766421" style="fill: #51a6e1; stroke: #51a6e1"/>
     <use xlink:href="#m5f29ddfb42" x="309.647802" y="43.583934" style="fill: #51a6e1; stroke: #51a6e1"/>
    </g>
   </g>
   <g id="line2d_2">
    <path d="M 96.802035 142.855898 
L 309.647802 39.512142 
" clip-path="url(#p52bafa6ac0)" style="fill: none; stroke: #0f3a57; stroke-width: 2; stroke-linecap: round"/>
   </g>
   <g id="matplotlib.axis_1">
    <g id="xtick_1">
     <g id="text_1">
      <!-- 2 -->
      <g style="fill: #262626" transform="translate(92.718285 188.62976) scale(0.165 -0.165)">
       <defs>
        <path id="STIXTwoText-Regular-32" d="M 2765 0 
L 2970 1024 
L 2784 1024 
C 2637 640 2554 506 2214 506 
L 1325 506 
L 877 486 
L 877 518 
L 1722 1318 
C 2400 2003 2765 2445 2765 3014 
C 2765 3686 2259 4122 1536 4122 
C 915 4122 480 3763 282 3142 
L 435 3078 
C 672 3558 954 3706 1370 3706 
C 1862 3706 2170 3398 2170 2918 
C 2170 2246 1850 1843 1216 1190 
L 243 218 
L 243 0 
L 2765 0 
z
" transform="scale(0.015625)"/>
       </defs>
       <use xlink:href="#STIXTwoText-Regular-32"/>
      </g>
     </g>
    </g>
    <g id="xtick_2">
     <g id="text_2">
      <!-- 4 -->
      <g style="fill: #262626" transform="translate(140.017344 188.62976) scale(0.165 -0.165)">
       <defs>
        <path id="STIXTwoText-Regular-34" d="M 2426 0 
L 2426 1011 
L 3078 1011 
L 3078 1453 
L 2426 1453 
L 2426 4128 
L 2035 4128 
L 83 1414 
L 83 1011 
L 1856 1011 
L 1856 0 
L 2426 0 
z
M 435 1478 
L 1830 3430 
L 1856 3430 
L 1856 1453 
L 435 1453 
L 435 1478 
z
" transform="scale(0.015625)"/>
       </defs>
       <use xlink:href="#STIXTwoText-Regular-34"/>
      </g>
     </g>
    </g>
    <g id="xtick_3">
     <g id="text_3">
      <!-- 6 -->
      <g style="fill: #262626" transform="translate(187.316403 188.62976) scale(0.165 -0.165)">
       <defs>
        <path id="STIXTwoText-Regular-36" d="M 1658 -77 
C 2464 -77 2925 429 2925 1299 
C 2925 2138 2470 2643 1773 2643 
C 1440 2643 1203 2502 941 2246 
L 896 2253 
C 1056 3187 1773 3814 2669 3949 
L 2656 4134 
C 1280 4077 288 3187 288 1645 
C 288 704 704 -77 1658 -77 
z
M 1683 147 
C 1126 147 864 717 864 1510 
C 864 2067 1210 2272 1581 2272 
C 2112 2272 2368 1824 2368 1248 
C 2368 435 2112 147 1683 147 
z
" transform="scale(0.015625)"/>
       </defs>
       <use xlink:href="#STIXTwoText-Regular-36"/>
      </g>
     </g>
    </g>
    <g id="xtick_4">
     <g id="text_4">
      <!-- 8 -->
      <g style="fill: #262626" transform="translate(234.615463 188.62976) scale(0.165 -0.165)">
       <defs>
        <path id="STIXTwoText-Regular-38" d="M 1574 -77 
C 2336 -77 2867 288 2867 960 
C 2867 1472 2630 1779 1888 2234 
L 1888 2253 
C 2483 2579 2714 2790 2714 3258 
C 2714 3763 2227 4141 1594 4141 
C 890 4141 378 3776 378 3194 
C 378 2758 518 2496 1171 2042 
L 1171 2022 
C 576 1626 294 1421 294 909 
C 294 256 832 -77 1574 -77 
z
M 1370 1920 
C 2138 1421 2330 1184 2330 774 
C 2330 339 1997 122 1600 122 
C 1114 122 794 384 794 960 
C 794 1402 998 1626 1370 1920 
z
M 1690 2355 
C 1120 2701 877 2931 877 3309 
C 877 3699 1146 3930 1581 3930 
C 1990 3930 2240 3693 2240 3270 
C 2240 2861 2112 2611 1690 2355 
z
" transform="scale(0.015625)"/>
       </defs>
       <use xlink:href="#STIXTwoText-Regular-38"/>
      </g>
     </g>
    </g>
    <g id="xtick_5">
     <g id="text_5">
      <!-- 10 -->
      <g style="fill: #262626" transform="translate(277.830772 188.62976) scale(0.165 -0.165)">
       <defs>
        <path id="STIXTwoText-Regular-31" d="M 2726 0 
L 2726 179 
C 2138 179 1901 294 1901 608 
L 1901 4090 
L 1715 4090 
L 474 3738 
L 474 3526 
C 672 3590 998 3629 1126 3629 
C 1286 3629 1338 3539 1338 3315 
L 1338 608 
C 1338 288 1114 179 512 179 
L 512 0 
L 2726 0 
z
" transform="scale(0.015625)"/>
        <path id="STIXTwoText-Regular-30" d="M 1581 -70 
C 2586 -70 2995 934 2995 2029 
C 2995 3347 2419 4109 1594 4109 
C 666 4109 173 3264 173 2048 
C 173 915 550 -70 1581 -70 
z
M 1581 160 
C 1069 160 787 774 787 2016 
C 787 3283 1069 3891 1574 3891 
C 2099 3891 2374 3290 2374 1990 
C 2374 762 2086 160 1581 160 
z
" transform="scale(0.015625)"/>
       </defs>
       <use xlink:href="#STIXTwoText-Regular-31"/>
       <use xlink:href="#STIXTwoText-Regular-30" transform="translate(49.499985 0)"/>
      </g>
     </g>
    </g>
    <g id="xtick_6">
     <g id="text_6">
      <!-- 12 -->
      <g style="fill: #262626" transform="translate(325.129831 188.62976) scale(0.165 -0.165)">
       <use xlink:href="#STIXTwoText-Regular-31"/>
       <use xlink:href="#STIXTwoText-Regular-32" transform="translate(49.499985 0)"/>
      </g>
     </g>
    </g>
    <g id="text_7">
     <!-- Temporal scale $j$ -->
     <g style="fill: #262626" transform="translate(140.854918 209.03976) scale(0.18 -0.18)">
      <defs>
       <path id="STIXTwoText-Regular-54" d="M 2861 0 
L 2861 192 
C 2310 192 2227 256 2227 838 
L 2227 3917 
L 2630 3917 
C 3341 3917 3418 3750 3558 3053 
L 3757 3053 
L 3706 4205 
L 166 4205 
L 96 3053 
L 294 3053 
C 429 3750 518 3917 1222 3917 
L 1632 3917 
L 1632 838 
C 1632 256 1542 192 1005 192 
L 1005 0 
L 2861 0 
z
" transform="scale(0.015625)"/>
       <path id="STIXTwoText-Regular-65" d="M 1581 -64 
C 2240 -64 2547 339 2778 826 
L 2656 915 
C 2451 646 2253 416 1734 416 
C 1210 416 742 832 730 1702 
L 2758 1702 
C 2726 2598 2266 3104 1568 3104 
C 819 3104 218 2592 218 1523 
C 218 493 813 -64 1581 -64 
z
M 736 1939 
C 781 2522 1024 2848 1472 2848 
C 1926 2848 2138 2413 2157 1939 
L 736 1939 
z
" transform="scale(0.015625)"/>
       <path id="STIXTwoText-Regular-6d" d="M 3520 0 
L 3520 186 
C 3059 186 3027 301 3027 742 
L 3027 2298 
C 3238 2477 3501 2694 3763 2694 
C 4064 2694 4314 2554 4314 1971 
L 4314 742 
C 4314 352 4294 186 3859 186 
L 3859 0 
L 5306 0 
L 5306 186 
C 4864 186 4845 339 4845 742 
L 4845 2048 
C 4845 2822 4518 3104 4019 3104 
C 3680 3104 3354 2918 3002 2573 
L 2976 2573 
C 2848 2880 2630 3104 2266 3104 
C 1830 3104 1536 2867 1190 2566 
L 1165 2566 
L 1165 3085 
L 1011 3085 
L 211 2899 
L 211 2714 
C 211 2714 288 2726 384 2726 
C 563 2726 653 2669 653 2438 
L 653 646 
C 653 262 608 186 205 186 
L 205 0 
L 1664 0 
L 1664 186 
C 1267 186 1184 262 1184 621 
L 1184 2285 
C 1363 2458 1651 2694 1984 2694 
C 2278 2694 2496 2554 2496 2010 
L 2496 742 
C 2496 294 2458 186 2003 186 
L 2003 0 
L 3520 0 
z
" transform="scale(0.015625)"/>
       <path id="STIXTwoText-Regular-70" d="M 1760 -1408 
L 1760 -1222 
C 1261 -1222 1139 -1139 1139 -723 
L 1139 115 
L 1165 115 
C 1350 -13 1568 -64 1811 -64 
C 2579 -64 3213 582 3213 1670 
C 3213 2509 2771 3104 2138 3104 
C 1760 3104 1453 2906 1146 2547 
L 1126 2547 
L 1126 3085 
L 966 3085 
L 160 2906 
L 160 2720 
C 160 2720 282 2733 365 2733 
C 576 2733 608 2650 608 2406 
L 608 -762 
C 608 -1120 544 -1229 141 -1229 
L 141 -1408 
L 1760 -1408 
z
M 1843 186 
C 1485 186 1261 474 1139 608 
L 1139 2278 
C 1261 2438 1536 2669 1875 2669 
C 2349 2669 2630 2298 2630 1491 
C 2630 602 2291 186 1843 186 
z
" transform="scale(0.015625)"/>
       <path id="STIXTwoText-Regular-6f" d="M 1651 -64 
C 2483 -64 3072 499 3072 1574 
C 3072 2522 2528 3104 1651 3104 
C 787 3104 218 2477 218 1549 
C 218 512 755 -64 1651 -64 
z
M 1677 192 
C 1126 186 813 614 813 1632 
C 813 2451 1139 2861 1626 2861 
C 2195 2861 2483 2330 2483 1542 
C 2483 499 2202 192 1677 192 
z
" transform="scale(0.015625)"/>
       <path id="STIXTwoText-Regular-72" d="M 1786 0 
L 1786 186 
C 1306 186 1184 250 1184 653 
L 1184 2112 
C 1338 2368 1542 2637 1690 2637 
C 1766 2637 1894 2419 2106 2419 
C 2246 2419 2387 2522 2387 2765 
C 2387 2982 2266 3123 2016 3123 
C 1709 3123 1517 2899 1190 2426 
L 1171 2426 
L 1171 3085 
L 1018 3085 
L 224 2893 
L 224 2714 
C 224 2714 294 2726 422 2726 
C 653 2726 653 2611 653 2381 
L 653 621 
C 653 262 608 186 186 186 
L 186 0 
L 1786 0 
z
" transform="scale(0.015625)"/>
       <path id="STIXTwoText-Regular-61" d="M 1005 -45 
C 1414 -45 1645 134 1946 397 
L 1971 397 
C 2010 115 2074 -32 2355 -32 
C 2682 -32 2835 102 3046 410 
L 2950 512 
C 2861 416 2771 352 2650 352 
C 2515 352 2458 403 2458 666 
L 2458 2118 
C 2458 2784 2195 3104 1498 3104 
C 800 3104 371 2758 371 2400 
C 371 2189 512 2093 640 2093 
C 819 2093 922 2189 922 2387 
C 922 2771 986 2906 1350 2906 
C 1734 2906 1926 2694 1926 2138 
L 1926 1856 
C 1376 1683 243 1517 243 672 
C 243 262 512 -45 1005 -45 
z
M 1926 589 
C 1709 410 1478 307 1267 307 
C 992 307 806 506 806 826 
C 806 1325 1344 1498 1926 1645 
L 1926 589 
z
" transform="scale(0.015625)"/>
       <path id="STIXTwoText-Regular-6c" d="M 1664 0 
L 1664 186 
C 1203 186 1171 275 1171 646 
L 1171 4518 
L 1011 4518 
L 166 4294 
L 166 4122 
C 166 4122 262 4134 371 4134 
C 531 4134 640 4122 640 3859 
L 640 646 
C 640 288 614 186 192 186 
L 192 0 
L 1664 0 
z
" transform="scale(0.015625)"/>
       <path id="STIXTwoText-Regular-20" transform="scale(0.015625)"/>
       <path id="STIXTwoText-Regular-73" d="M 269 -51 
L 403 -51 
L 538 96 
L 550 96 
C 717 26 909 -70 1280 -70 
C 1856 -70 2355 160 2355 762 
C 2355 1235 2042 1472 1459 1779 
C 922 2054 710 2214 710 2464 
C 710 2752 934 2886 1229 2886 
C 1619 2886 1856 2701 1997 2093 
L 2170 2093 
L 2150 3072 
L 2022 3072 
L 1914 2938 
L 1907 2938 
C 1747 3014 1555 3104 1235 3104 
C 685 3104 256 2822 256 2298 
C 256 1824 518 1600 1101 1306 
C 1696 1011 1818 890 1818 589 
C 1818 288 1587 166 1267 166 
C 794 166 550 390 416 1050 
L 250 1050 
L 269 -51 
z
" transform="scale(0.015625)"/>
       <path id="STIXTwoText-Regular-63" d="M 2611 947 
C 2323 576 2106 416 1690 416 
C 1030 416 717 966 717 1747 
C 717 2483 1030 2867 1549 2867 
C 2099 2867 1888 2138 2362 2138 
C 2541 2138 2630 2240 2630 2426 
C 2630 2797 2259 3104 1658 3104 
C 736 3104 211 2451 211 1446 
C 211 557 691 -64 1491 -64 
C 2176 -64 2490 339 2733 858 
L 2611 947 
z
" transform="scale(0.015625)"/>
       <path id="STIXGeneral-Italic-6a" d="M 1786 3827 
Q 1786 3699 1690 3603 
Q 1594 3507 1466 3507 
Q 1318 3507 1219 3600 
Q 1120 3693 1120 3840 
Q 1120 3981 1222 4077 
Q 1325 4173 1459 4173 
Q 1587 4173 1686 4067 
Q 1786 3962 1786 3827 
z
M 1574 2803 
L 909 179 
Q 710 -595 419 -960 
Q 128 -1325 -288 -1325 
Q -512 -1325 -653 -1216 
Q -794 -1107 -794 -934 
Q -794 -819 -717 -736 
Q -640 -653 -531 -653 
Q -282 -653 -282 -890 
Q -282 -966 -320 -1014 
Q -358 -1062 -358 -1107 
Q -358 -1184 -243 -1184 
Q -51 -1184 80 -934 
Q 211 -685 378 -19 
L 838 1850 
Q 941 2266 941 2362 
Q 941 2470 873 2515 
Q 806 2560 634 2560 
L 467 2560 
L 467 2662 
Q 755 2682 1549 2822 
L 1574 2803 
z
" transform="scale(0.015625)"/>
      </defs>
      <use xlink:href="#STIXTwoText-Regular-54" transform="translate(0 0.40625)"/>
      <use xlink:href="#STIXTwoText-Regular-65" transform="translate(60.299988 0.40625)"/>
      <use xlink:href="#STIXTwoText-Regular-6d" transform="translate(106.699982 0.40625)"/>
      <use xlink:href="#STIXTwoText-Regular-70" transform="translate(191.899963 0.40625)"/>
      <use xlink:href="#STIXTwoText-Regular-6f" transform="translate(245.59996 0.40625)"/>
      <use xlink:href="#STIXTwoText-Regular-72" transform="translate(296.999954 0.40625)"/>
      <use xlink:href="#STIXTwoText-Regular-61" transform="translate(334.999939 0.40625)"/>
      <use xlink:href="#STIXTwoText-Regular-6c" transform="translate(382.999924 0.40625)"/>
      <use xlink:href="#STIXTwoText-Regular-20" transform="translate(411.299911 0.40625)"/>
      <use xlink:href="#STIXTwoText-Regular-73" transform="translate(434.799896 0.40625)"/>
      <use xlink:href="#STIXTwoText-Regular-63" transform="translate(474.299881 0.40625)"/>
      <use xlink:href="#STIXTwoText-Regular-61" transform="translate(518.899872 0.40625)"/>
      <use xlink:href="#STIXTwoText-Regular-6c" transform="translate(566.899857 0.40625)"/>
      <use xlink:href="#STIXTwoText-Regular-65" transform="translate(595.199844 0.40625)"/>
      <use xlink:href="#STIXTwoText-Regular-20" transform="translate(641.599838 0.40625)"/>
      <use xlink:href="#STIXGeneral-Italic-6a" transform="translate(665.099823 0.40625)"/>
     </g>
    </g>
   </g>
   <g id="matplotlib.axis_2">
    <g id="ytick_1">
     <g id="text_8">
      <!-- −6 -->
      <g style="fill: #262626" transform="translate(28.78024 129.318101) scale(0.165 -0.165)">
       <defs>
        <path id="STIXTwoText-Regular-2212" d="M 4211 1434 
L 4211 1869 
L 397 1869 
L 397 1434 
L 4211 1434 
z
" transform="scale(0.015625)"/>
       </defs>
       <use xlink:href="#STIXTwoText-Regular-2212"/>
       <use xlink:href="#STIXTwoText-Regular-36" transform="translate(71.999985 0)"/>
      </g>
     </g>
    </g>
    <g id="ytick_2">
     <g id="text_9">
      <!-- −4 -->
      <g style="fill: #262626" transform="translate(28.78024 85.221537) scale(0.165 -0.165)">
       <use xlink:href="#STIXTwoText-Regular-2212"/>
       <use xlink:href="#STIXTwoText-Regular-34" transform="translate(71.999985 0)"/>
      </g>
     </g>
    </g>
    <g id="ytick_3">
     <g id="text_10">
      <!-- −2 -->
      <g style="fill: #262626" transform="translate(28.78024 41.124973) scale(0.165 -0.165)">
       <use xlink:href="#STIXTwoText-Regular-2212"/>
       <use xlink:href="#STIXTwoText-Regular-32" transform="translate(71.999985 0)"/>
      </g>
     </g>
    </g>
    <g id="text_11">
     <!-- $C_1^{(2)}(j)$ -->
     <g style="fill: #262626" transform="translate(19.92024 122.331499) rotate(-90) scale(0.18 -0.18)">
      <defs>
       <path id="STIXGeneral-Italic-43" d="M 4410 4250 
L 4173 2970 
L 4058 2989 
Q 3942 4032 3104 4032 
Q 2406 4032 1830 3411 
Q 1491 3053 1315 2541 
Q 1139 2029 1139 1485 
Q 1139 173 2259 173 
Q 2656 173 2985 339 
Q 3315 506 3725 934 
L 3840 838 
Q 3411 333 2998 109 
Q 2586 -115 2093 -115 
Q 1344 -115 883 329 
Q 422 774 422 1555 
Q 422 2214 748 2812 
Q 1075 3411 1619 3795 
Q 2272 4262 3021 4262 
Q 3462 4262 3770 4154 
Q 3898 4109 4032 4109 
Q 4205 4109 4275 4250 
L 4410 4250 
z
" transform="scale(0.015625)"/>
       <path id="STIXGeneral-Regular-28" d="M 1946 -1030 
L 1869 -1133 
Q 1126 -710 716 32 
Q 307 774 307 1613 
Q 307 3386 1888 4326 
L 1946 4224 
Q 1293 3667 1075 3126 
Q 858 2586 858 1632 
Q 858 685 1082 96 
Q 1306 -493 1946 -1030 
z
" transform="scale(0.015625)"/>
       <path id="STIXGeneral-Regular-32" d="M 3034 877 
L 2688 0 
L 186 0 
L 186 77 
L 1325 1286 
Q 1773 1754 1965 2144 
Q 2157 2534 2157 2950 
Q 2157 3379 1920 3616 
Q 1683 3853 1267 3853 
Q 922 3853 720 3673 
Q 518 3494 326 3021 
L 192 3053 
Q 301 3648 630 3987 
Q 960 4326 1523 4326 
Q 2054 4326 2380 4006 
Q 2707 3686 2707 3200 
Q 2707 2477 1888 1613 
L 832 486 
L 2330 486 
Q 2541 486 2665 569 
Q 2790 653 2944 915 
L 3034 877 
z
" transform="scale(0.015625)"/>
       <path id="STIXGeneral-Regular-29" d="M 186 4224 
L 262 4326 
Q 992 3891 1408 3148 
Q 1824 2406 1824 1581 
Q 1824 -166 243 -1133 
L 186 -1030 
Q 845 -486 1059 54 
Q 1274 595 1274 1562 
Q 1274 2534 1059 3120 
Q 845 3706 186 4224 
z
" transform="scale(0.015625)"/>
       <path id="STIXGeneral-Regular-31" d="M 2522 0 
L 755 0 
L 755 96 
Q 1107 115 1235 227 
Q 1363 339 1363 608 
L 1363 3482 
Q 1363 3795 1171 3795 
Q 1082 3795 883 3718 
L 710 3654 
L 710 3744 
L 1856 4326 
L 1914 4307 
L 1914 486 
Q 1914 275 2042 185 
Q 2170 96 2522 96 
L 2522 0 
z
" transform="scale(0.015625)"/>
      </defs>
      <use xlink:href="#STIXGeneral-Italic-43" transform="translate(0 0.932813)"/>
      <use xlink:href="#STIXGeneral-Regular-28" transform="translate(77.598122 46.684375) scale(0.7)"/>
      <use xlink:href="#STIXGeneral-Regular-32" transform="translate(100.908113 46.684375) scale(0.7)"/>
      <use xlink:href="#STIXGeneral-Regular-29" transform="translate(135.908103 46.684375) scale(0.7)"/>
      <use xlink:href="#STIXGeneral-Regular-31" transform="translate(66.699997 -25.523437) scale(0.7)"/>
      <use xlink:href="#STIXGeneral-Regular-28" transform="translate(163.627469 0.932813)"/>
      <use xlink:href="#STIXGeneral-Italic-6a" transform="translate(196.927457 0.932813)"/>
      <use xlink:href="#STIXGeneral-Regular-29" transform="translate(224.727445 0.932813)"/>
     </g>
    </g>
   </g>
   <g id="patch_3">
    <path d="M 61.32774 164.481791 
L 61.32774 33.561207 
" style="fill: none; stroke: #262626; stroke-width: 1.875; stroke-linejoin: miter; stroke-linecap: square"/>
   </g>
   <g id="patch_4">
    <path d="M 61.32774 164.481791 
L 345.122096 164.481791 
" style="fill: none; stroke: #262626; stroke-width: 1.875; stroke-linejoin: miter; stroke-linecap: square"/>
   </g>
   <g id="text_12">
    <!-- $c_1 = 0.8$ -->
    <g style="fill: #0f3a57" transform="translate(274.173507 93.502161) scale(0.2 -0.2)">
     <defs>
      <path id="STIXGeneral-Italic-63" d="M 2240 685 
L 2342 621 
Q 2048 250 1769 90 
Q 1491 -70 1133 -70 
Q 678 -70 435 179 
Q 192 429 192 915 
Q 192 1344 409 1744 
Q 627 2144 979 2432 
Q 1472 2822 2048 2822 
Q 2342 2822 2531 2675 
Q 2720 2528 2720 2304 
Q 2720 2176 2630 2086 
Q 2541 1997 2413 1997 
Q 2285 1997 2224 2070 
Q 2163 2144 2163 2253 
Q 2163 2310 2211 2403 
Q 2259 2496 2259 2560 
Q 2259 2688 2022 2688 
Q 1619 2688 1325 2381 
Q 742 1766 742 890 
Q 742 544 889 352 
Q 1037 160 1312 160 
Q 1562 160 1766 281 
Q 1971 403 2240 685 
z
" transform="scale(0.015625)"/>
      <path id="STIXGeneral-Regular-3d" d="M 4077 2048 
L 307 2048 
L 307 2470 
L 4077 2470 
L 4077 2048 
z
M 4077 768 
L 307 768 
L 307 1190 
L 4077 1190 
L 4077 768 
z
" transform="scale(0.015625)"/>
      <path id="STIXGeneral-Regular-30" d="M 3046 2112 
Q 3046 1683 2963 1302 
Q 2880 922 2717 602 
Q 2554 282 2266 96 
Q 1978 -90 1600 -90 
Q 1210 -90 915 108 
Q 621 307 461 640 
Q 301 973 227 1350 
Q 154 1728 154 2150 
Q 154 2746 301 3222 
Q 448 3699 790 4012 
Q 1133 4326 1626 4326 
Q 2253 4326 2649 3712 
Q 3046 3098 3046 2112 
z
M 2432 2080 
Q 2432 3091 2217 3625 
Q 2003 4160 1587 4160 
Q 1190 4160 979 3622 
Q 768 3085 768 2106 
Q 768 1120 979 598 
Q 1190 77 1600 77 
Q 2003 77 2217 598 
Q 2432 1120 2432 2080 
z
" transform="scale(0.015625)"/>
      <path id="STIXGeneral-Regular-2e" d="M 1158 275 
Q 1158 134 1052 32 
Q 947 -70 800 -70 
Q 653 -70 550 32 
Q 448 134 448 281 
Q 448 429 553 534 
Q 659 640 806 640 
Q 947 640 1052 531 
Q 1158 422 1158 275 
z
" transform="scale(0.015625)"/>
      <path id="STIXGeneral-Regular-38" d="M 2848 992 
Q 2848 499 2505 204 
Q 2163 -90 1587 -90 
Q 1050 -90 704 204 
Q 358 499 358 954 
Q 358 1293 524 1533 
Q 691 1773 1190 2125 
Q 710 2522 553 2765 
Q 397 3008 397 3328 
Q 397 3782 745 4054 
Q 1094 4326 1638 4326 
Q 2106 4326 2410 4060 
Q 2714 3795 2714 3411 
Q 2714 3059 2531 2848 
Q 2349 2637 1856 2374 
Q 2432 1990 2640 1689 
Q 2848 1389 2848 992 
z
M 2272 3411 
Q 2272 3744 2086 3945 
Q 1901 4147 1574 4147 
Q 1248 4147 1059 3977 
Q 870 3808 870 3513 
Q 870 3219 1059 2979 
Q 1248 2739 1670 2490 
Q 1997 2682 2134 2896 
Q 2272 3110 2272 3411 
z
M 1734 1741 
L 1357 1997 
Q 1075 1766 960 1545 
Q 845 1325 845 1011 
Q 845 576 1065 333 
Q 1286 90 1658 90 
Q 1971 90 2166 285 
Q 2362 480 2362 794 
Q 2362 1082 2214 1299 
Q 2067 1517 1734 1741 
z
" transform="scale(0.015625)"/>
     </defs>
     <use xlink:href="#STIXGeneral-Italic-63" transform="translate(0 0.40625)"/>
     <use xlink:href="#STIXGeneral-Regular-31" transform="translate(44.399994 -12.821875) scale(0.7)"/>
     <use xlink:href="#STIXGeneral-Regular-3d" transform="translate(98.249355 0.40625)"/>
     <use xlink:href="#STIXGeneral-Regular-30" transform="translate(181.189336 0.40625)"/>
     <use xlink:href="#STIXGeneral-Regular-2e" transform="translate(231.18932 0.40625)"/>
     <use xlink:href="#STIXGeneral-Regular-38" transform="translate(256.189305 0.40625)"/>
    </g>
   </g>
  </g>
  <g id="axes_2">
   <g id="patch_5">
    <path d="M 419.147096 164.481791 
L 702.941453 164.481791 
L 702.941453 33.561207 
L 419.147096 33.561207 
z
" style="fill: #ffffff"/>
   </g>
   <g id="line2d_3">
    <path d="M 430.971861 39.512142 
L 454.621391 70.266718 
L 478.270921 81.027521 
L 501.92045 90.116634 
L 525.56998 95.366019 
L 549.21951 100.406555 
L 572.869039 108.451268 
L 596.518569 108.608851 
L 620.168099 126.890445 
L 643.817628 138.701309 
L 667.467158 158.530856 
" clip-path="url(#pb355001829)" style="fill: none; stroke-dasharray: 8.325,3.6; stroke-dashoffset: 0; stroke: #ff9333; stroke-width: 2.25"/>
    <defs>
     <path id="med997256ba" d="M 0 2.25 
C 0.596707 2.25 1.169055 2.012926 1.59099 1.59099 
C 2.012926 1.169055 2.25 0.596707 2.25 0 
C 2.25 -0.596707 2.012926 -1.169055 1.59099 -1.59099 
C 1.169055 -2.012926 0.596707 -2.25 0 -2.25 
C -0.596707 -2.25 -1.169055 -2.012926 -1.59099 -1.59099 
C -2.012926 -1.169055 -2.25 -0.596707 -2.25 0 
C -2.25 0.596707 -2.012926 1.169055 -1.59099 1.59099 
C -1.169055 2.012926 -0.596707 2.25 0 2.25 
z
" style="stroke: #ff9333"/>
    </defs>
    <g clip-path="url(#pb355001829)">
     <use xlink:href="#med997256ba" x="430.971861" y="39.512142" style="fill: #ff9333; stroke: #ff9333"/>
     <use xlink:href="#med997256ba" x="454.621391" y="70.266718" style="fill: #ff9333; stroke: #ff9333"/>
     <use xlink:href="#med997256ba" x="478.270921" y="81.027521" style="fill: #ff9333; stroke: #ff9333"/>
     <use xlink:href="#med997256ba" x="501.92045" y="90.116634" style="fill: #ff9333; stroke: #ff9333"/>
     <use xlink:href="#med997256ba" x="525.56998" y="95.366019" style="fill: #ff9333; stroke: #ff9333"/>
     <use xlink:href="#med997256ba" x="549.21951" y="100.406555" style="fill: #ff9333; stroke: #ff9333"/>
     <use xlink:href="#med997256ba" x="572.869039" y="108.451268" style="fill: #ff9333; stroke: #ff9333"/>
     <use xlink:href="#med997256ba" x="596.518569" y="108.608851" style="fill: #ff9333; stroke: #ff9333"/>
     <use xlink:href="#med997256ba" x="620.168099" y="126.890445" style="fill: #ff9333; stroke: #ff9333"/>
     <use xlink:href="#med997256ba" x="643.817628" y="138.701309" style="fill: #ff9333; stroke: #ff9333"/>
     <use xlink:href="#med997256ba" x="667.467158" y="158.530856" style="fill: #ff9333; stroke: #ff9333"/>
    </g>
   </g>
   <g id="line2d_4">
    <path d="M 454.621391 68.843817 
L 667.467158 146.829418 
" clip-path="url(#pb355001829)" style="fill: none; stroke: #663000; stroke-width: 2; stroke-linecap: round"/>
   </g>
   <g id="matplotlib.axis_3">
    <g id="xtick_7">
     <g id="text_13">
      <!-- 2 -->
      <g style="fill: #262626" transform="translate(450.537641 188.62976) scale(0.165 -0.165)">
       <use xlink:href="#STIXTwoText-Regular-32"/>
      </g>
     </g>
    </g>
    <g id="xtick_8">
     <g id="text_14">
      <!-- 4 -->
      <g style="fill: #262626" transform="translate(497.8367 188.62976) scale(0.165 -0.165)">
       <use xlink:href="#STIXTwoText-Regular-34"/>
      </g>
     </g>
    </g>
    <g id="xtick_9">
     <g id="text_15">
      <!-- 6 -->
      <g style="fill: #262626" transform="translate(545.13576 188.62976) scale(0.165 -0.165)">
       <use xlink:href="#STIXTwoText-Regular-36"/>
      </g>
     </g>
    </g>
    <g id="xtick_10">
     <g id="text_16">
      <!-- 8 -->
      <g style="fill: #262626" transform="translate(592.434819 188.62976) scale(0.165 -0.165)">
       <use xlink:href="#STIXTwoText-Regular-38"/>
      </g>
     </g>
    </g>
    <g id="xtick_11">
     <g id="text_17">
      <!-- 10 -->
      <g style="fill: #262626" transform="translate(635.650128 188.62976) scale(0.165 -0.165)">
       <use xlink:href="#STIXTwoText-Regular-31"/>
       <use xlink:href="#STIXTwoText-Regular-30" transform="translate(49.499985 0)"/>
      </g>
     </g>
    </g>
    <g id="xtick_12">
     <g id="text_18">
      <!-- 12 -->
      <g style="fill: #262626" transform="translate(682.949188 188.62976) scale(0.165 -0.165)">
       <use xlink:href="#STIXTwoText-Regular-31"/>
       <use xlink:href="#STIXTwoText-Regular-32" transform="translate(49.499985 0)"/>
      </g>
     </g>
    </g>
    <g id="text_19">
     <!-- Temporal scale $j$ -->
     <g style="fill: #262626" transform="translate(498.674274 209.03976) scale(0.18 -0.18)">
      <use xlink:href="#STIXTwoText-Regular-54" transform="translate(0 0.40625)"/>
      <use xlink:href="#STIXTwoText-Regular-65" transform="translate(60.299988 0.40625)"/>
      <use xlink:href="#STIXTwoText-Regular-6d" transform="translate(106.699982 0.40625)"/>
      <use xlink:href="#STIXTwoText-Regular-70" transform="translate(191.899963 0.40625)"/>
      <use xlink:href="#STIXTwoText-Regular-6f" transform="translate(245.59996 0.40625)"/>
      <use xlink:href="#STIXTwoText-Regular-72" transform="translate(296.999954 0.40625)"/>
      <use xlink:href="#STIXTwoText-Regular-61" transform="translate(334.999939 0.40625)"/>
      <use xlink:href="#STIXTwoText-Regular-6c" transform="translate(382.999924 0.40625)"/>
      <use xlink:href="#STIXTwoText-Regular-20" transform="translate(411.299911 0.40625)"/>
      <use xlink:href="#STIXTwoText-Regular-73" transform="translate(434.799896 0.40625)"/>
      <use xlink:href="#STIXTwoText-Regular-63" transform="translate(474.299881 0.40625)"/>
      <use xlink:href="#STIXTwoText-Regular-61" transform="translate(518.899872 0.40625)"/>
      <use xlink:href="#STIXTwoText-Regular-6c" transform="translate(566.899857 0.40625)"/>
      <use xlink:href="#STIXTwoText-Regular-65" transform="translate(595.199844 0.40625)"/>
      <use xlink:href="#STIXTwoText-Regular-20" transform="translate(641.599838 0.40625)"/>
      <use xlink:href="#STIXGeneral-Italic-6a" transform="translate(665.099823 0.40625)"/>
     </g>
    </g>
   </g>
   <g id="matplotlib.axis_4">
    <g id="ytick_4">
     <g id="text_20">
      <!-- 0.25 -->
      <g style="fill: #262626" transform="translate(378.102096 117.233268) scale(0.165 -0.165)">
       <defs>
        <path id="STIXTwoText-Regular-2e" d="M 774 -51 
C 1030 -51 1171 122 1171 320 
C 1171 538 1030 730 781 730 
C 544 730 397 544 397 326 
C 397 109 518 -51 774 -51 
z
" transform="scale(0.015625)"/>
        <path id="STIXTwoText-Regular-35" d="M 1114 -83 
C 2131 -83 2835 416 2835 1402 
C 2835 2406 2048 2707 992 2784 
L 1165 3514 
L 2669 3514 
L 2771 4032 
L 1018 4032 
L 621 2362 
L 698 2266 
C 1542 2246 2368 2093 2368 1146 
C 2368 480 1965 237 1510 237 
C 1101 237 890 550 634 550 
C 474 550 378 422 378 275 
C 378 38 621 -83 1114 -83 
z
" transform="scale(0.015625)"/>
       </defs>
       <use xlink:href="#STIXTwoText-Regular-30"/>
       <use xlink:href="#STIXTwoText-Regular-2e" transform="translate(49.499985 0)"/>
       <use xlink:href="#STIXTwoText-Regular-32" transform="translate(73.999969 0)"/>
       <use xlink:href="#STIXTwoText-Regular-35" transform="translate(123.499954 0)"/>
      </g>
     </g>
    </g>
    <g id="ytick_5">
     <g id="text_21">
      <!-- 0.50 -->
      <g style="fill: #262626" transform="translate(378.102096 63.86938) scale(0.165 -0.165)">
       <use xlink:href="#STIXTwoText-Regular-30"/>
       <use xlink:href="#STIXTwoText-Regular-2e" transform="translate(49.499985 0)"/>
       <use xlink:href="#STIXTwoText-Regular-35" transform="translate(73.999969 0)"/>
       <use xlink:href="#STIXTwoText-Regular-30" transform="translate(123.499954 0)"/>
      </g>
     </g>
    </g>
    <g id="text_22">
     <!-- $C_2^{(2)}(j)$ -->
     <g style="fill: #262626" transform="translate(369.242096 122.331499) rotate(-90) scale(0.18 -0.18)">
      <use xlink:href="#STIXGeneral-Italic-43" transform="translate(0 0.932813)"/>
      <use xlink:href="#STIXGeneral-Regular-28" transform="translate(77.598122 46.684375) scale(0.7)"/>
      <use xlink:href="#STIXGeneral-Regular-32" transform="translate(100.908113 46.684375) scale(0.7)"/>
      <use xlink:href="#STIXGeneral-Regular-29" transform="translate(135.908103 46.684375) scale(0.7)"/>
      <use xlink:href="#STIXGeneral-Regular-32" transform="translate(66.699997 -25.523437) scale(0.7)"/>
      <use xlink:href="#STIXGeneral-Regular-28" transform="translate(163.627469 0.932813)"/>
      <use xlink:href="#STIXGeneral-Italic-6a" transform="translate(196.927457 0.932813)"/>
      <use xlink:href="#STIXGeneral-Regular-29" transform="translate(224.727445 0.932813)"/>
     </g>
    </g>
   </g>
   <g id="patch_6">
    <path d="M 419.147096 164.481791 
L 419.147096 33.561207 
" style="fill: none; stroke: #262626; stroke-width: 1.875; stroke-linejoin: miter; stroke-linecap: square"/>
   </g>
   <g id="patch_7">
    <path d="M 419.147096 164.481791 
L 702.941453 164.481791 
" style="fill: none; stroke: #262626; stroke-width: 1.875; stroke-linejoin: miter; stroke-linecap: square"/>
   </g>
   <g id="text_23">
    <!-- $c_2 = -0.05$ -->
    <g style="fill: #663000" transform="translate(631.992863 106.59422) scale(0.2 -0.2)">
     <defs>
      <path id="STIXGeneral-Regular-2212" d="M 3974 1408 
L 410 1408 
L 410 1830 
L 3974 1830 
L 3974 1408 
z
" transform="scale(0.015625)"/>
      <path id="STIXGeneral-Regular-35" d="M 2803 4358 
L 2573 3814 
Q 2534 3731 2400 3731 
L 1158 3731 
L 902 3187 
Q 1606 3053 1920 2896 
Q 2234 2739 2502 2368 
Q 2726 2061 2726 1555 
Q 2726 1094 2576 780 
Q 2426 467 2099 224 
Q 1664 -90 1011 -90 
Q 646 -90 422 19 
Q 198 128 198 307 
Q 198 550 486 550 
Q 717 550 960 352 
Q 1210 147 1414 147 
Q 1747 147 2012 480 
Q 2278 813 2278 1229 
Q 2278 1843 1850 2189 
Q 1293 2637 486 2637 
Q 410 2637 410 2688 
L 416 2720 
L 1114 4237 
L 2438 4237 
Q 2547 4237 2608 4269 
Q 2669 4301 2746 4403 
L 2803 4358 
z
" transform="scale(0.015625)"/>
     </defs>
     <use xlink:href="#STIXGeneral-Italic-63" transform="translate(0 0.203125)"/>
     <use xlink:href="#STIXGeneral-Regular-32" transform="translate(44.399994 -13.025) scale(0.7)"/>
     <use xlink:href="#STIXGeneral-Regular-3d" transform="translate(98.249355 0.203125)"/>
     <use xlink:href="#STIXGeneral-Regular-2212" transform="translate(181.189336 0.203125)"/>
     <use xlink:href="#STIXGeneral-Regular-30" transform="translate(249.68932 0.203125)"/>
     <use xlink:href="#STIXGeneral-Regular-2e" transform="translate(299.689305 0.203125)"/>
     <use xlink:href="#STIXGeneral-Regular-30" transform="translate(324.68929 0.203125)"/>
     <use xlink:href="#STIXGeneral-Regular-35" transform="translate(374.689275 0.203125)"/>
    </g>
   </g>
  </g>
  <g id="text_24">
   <!-- Estimation of the log-cumulants -->
   <g style="fill: #262626" transform="translate(213.03225 18.400365) scale(0.216 -0.216)">
    <defs>
     <path id="STIXTwoText-Regular-45" d="M 3648 0 
L 3827 1190 
L 3622 1190 
C 3373 429 3258 275 2266 282 
L 1440 282 
L 1440 2042 
L 2189 2042 
C 2778 2042 2906 1971 2906 1446 
L 3110 1446 
L 3110 2931 
L 2906 2931 
C 2906 2413 2778 2291 2189 2291 
L 1440 2291 
L 1440 3917 
L 2381 3917 
C 3168 3917 3328 3795 3424 3155 
L 3629 3155 
L 3590 4205 
L 230 4205 
L 230 4013 
C 749 4013 851 3910 851 3424 
L 851 755 
C 851 256 749 192 230 192 
L 230 0 
L 3648 0 
z
" transform="scale(0.015625)"/>
     <path id="STIXTwoText-Regular-74" d="M 1875 576 
C 1715 397 1632 314 1427 314 
C 1178 314 1120 467 1120 922 
L 1120 2726 
L 1843 2726 
L 1843 2995 
L 1120 2995 
L 1120 3904 
L 960 3904 
C 730 3360 538 3059 237 2874 
L 237 2726 
L 589 2726 
L 589 742 
C 589 166 774 -64 1203 -64 
C 1613 -64 1747 128 1997 474 
L 1875 576 
z
" transform="scale(0.015625)"/>
     <path id="STIXTwoText-Regular-69" d="M 1645 0 
L 1645 179 
C 1216 179 1184 275 1184 646 
L 1184 3085 
L 1018 3085 
L 211 2906 
L 211 2720 
C 211 2720 282 2733 371 2733 
C 557 2733 653 2707 653 2432 
L 653 646 
C 653 282 634 179 205 179 
L 205 0 
L 1645 0 
z
M 928 3584 
C 1152 3584 1293 3750 1293 3949 
C 1293 4141 1152 4307 928 4307 
C 704 4307 563 4141 563 3949 
C 563 3750 710 3584 928 3584 
z
" transform="scale(0.015625)"/>
     <path id="STIXTwoText-Regular-6e" d="M 3552 0 
L 3552 179 
C 3123 179 3078 288 3078 646 
L 3078 1965 
C 3078 2701 2803 3104 2221 3104 
C 1818 3104 1536 2874 1190 2566 
L 1165 2566 
L 1171 3085 
L 1024 3085 
L 211 2899 
L 211 2714 
C 211 2714 275 2726 384 2726 
C 557 2726 653 2675 653 2445 
L 653 646 
C 653 288 634 179 205 179 
L 205 0 
L 1670 0 
L 1670 179 
C 1210 179 1184 288 1184 646 
L 1184 2291 
C 1376 2464 1613 2694 1958 2694 
C 2246 2694 2547 2573 2547 1805 
L 2547 646 
C 2547 288 2528 179 2074 179 
L 2074 0 
L 3552 0 
z
" transform="scale(0.015625)"/>
     <path id="STIXTwoText-Regular-66" d="M 1837 0 
L 1837 186 
C 1306 186 1184 262 1184 762 
L 1184 2726 
L 1965 2726 
L 1965 2995 
L 1184 2995 
L 1184 3597 
C 1184 4134 1254 4326 1491 4326 
C 1645 4326 1734 4211 1818 4090 
C 1914 3968 1997 3840 2163 3840 
C 2310 3840 2426 3930 2426 4115 
C 2426 4403 2125 4563 1709 4563 
C 1261 4563 1030 4390 858 4096 
C 710 3827 659 3578 653 2995 
L 166 2995 
L 166 2726 
L 653 2726 
L 653 762 
C 653 262 582 186 115 186 
L 115 0 
L 1837 0 
z
" transform="scale(0.015625)"/>
     <path id="STIXTwoText-Regular-68" d="M 3558 0 
L 3558 186 
C 3155 186 3085 307 3085 646 
L 3085 1920 
C 3085 2445 2963 3104 2227 3104 
C 1888 3104 1594 2957 1190 2579 
L 1171 2579 
L 1171 4518 
L 998 4518 
L 141 4294 
L 141 4115 
C 141 4115 224 4128 326 4128 
C 499 4128 640 4096 640 3872 
L 640 595 
C 640 237 525 186 192 186 
L 192 0 
L 1645 0 
L 1645 186 
C 1203 186 1171 288 1171 621 
L 1171 2298 
C 1485 2586 1715 2694 1965 2694 
C 2483 2694 2554 2253 2554 1728 
L 2554 621 
C 2554 314 2528 186 2086 186 
L 2086 0 
L 3558 0 
z
" transform="scale(0.015625)"/>
     <path id="STIXTwoText-Regular-67" d="M 1222 -1504 
C 2029 -1504 2976 -1210 2976 -352 
C 2976 384 2362 410 1555 410 
C 966 410 800 474 800 666 
C 800 774 902 1005 966 1094 
C 1133 1037 1312 998 1517 998 
C 2189 998 2650 1376 2650 1971 
C 2650 2291 2509 2502 2419 2630 
L 2419 2662 
L 3021 2643 
L 3021 2989 
L 2202 2944 
C 1997 3046 1754 3104 1485 3104 
C 806 3104 326 2701 326 2061 
C 326 1645 512 1363 819 1190 
L 819 1178 
C 518 947 294 678 294 448 
C 294 250 474 64 653 -13 
L 653 -38 
C 307 -371 134 -589 134 -800 
C 134 -1152 384 -1504 1222 -1504 
z
M 813 -64 
C 902 -64 1024 -70 1536 -77 
C 1555 -77 1574 -77 1594 -77 
C 2022 -83 2650 -90 2650 -531 
C 2650 -806 2349 -1139 1594 -1139 
C 941 -1139 634 -954 634 -582 
C 634 -448 678 -301 813 -64 
z
M 1523 1222 
C 1107 1222 890 1536 890 2086 
C 890 2624 1107 2874 1440 2874 
C 1850 2874 2080 2528 2080 2010 
C 2080 1402 1843 1222 1523 1222 
z
" transform="scale(0.015625)"/>
     <path id="STIXTwoText-Regular-2d" d="M 1728 1395 
L 1728 1811 
L 288 1811 
L 288 1395 
L 1728 1395 
z
" transform="scale(0.015625)"/>
     <path id="STIXTwoText-Regular-75" d="M 1421 -64 
C 1830 -64 2131 128 2470 461 
L 2502 461 
L 2502 -32 
L 2643 -32 
L 3456 115 
L 3456 288 
L 3392 288 
C 3085 288 3008 333 3008 710 
L 3008 3059 
L 2854 3059 
L 1958 2963 
L 1958 2784 
C 2368 2784 2477 2752 2477 2413 
L 2477 730 
C 2221 506 2016 346 1690 346 
C 1357 346 1114 538 1114 1190 
L 1114 3059 
L 973 3059 
L 147 2963 
L 147 2784 
C 493 2778 582 2752 582 2406 
L 582 1107 
C 582 237 890 -64 1421 -64 
z
" transform="scale(0.015625)"/>
    </defs>
    <use xlink:href="#STIXTwoText-Regular-45"/>
    <use xlink:href="#STIXTwoText-Regular-73" transform="translate(62.599991 0)"/>
    <use xlink:href="#STIXTwoText-Regular-74" transform="translate(102.099976 0)"/>
    <use xlink:href="#STIXTwoText-Regular-69" transform="translate(133.59996 0)"/>
    <use xlink:href="#STIXTwoText-Regular-6d" transform="translate(162.099945 0)"/>
    <use xlink:href="#STIXTwoText-Regular-61" transform="translate(247.299927 0)"/>
    <use xlink:href="#STIXTwoText-Regular-74" transform="translate(295.299911 0)"/>
    <use xlink:href="#STIXTwoText-Regular-69" transform="translate(326.799896 0)"/>
    <use xlink:href="#STIXTwoText-Regular-6f" transform="translate(355.299881 0)"/>
    <use xlink:href="#STIXTwoText-Regular-6e" transform="translate(406.699875 0)"/>
    <use xlink:href="#STIXTwoText-Regular-20" transform="translate(464.299866 0)"/>
    <use xlink:href="#STIXTwoText-Regular-6f" transform="translate(487.79985 0)"/>
    <use xlink:href="#STIXTwoText-Regular-66" transform="translate(539.199844 0)"/>
    <use xlink:href="#STIXTwoText-Regular-20" transform="translate(569.899841 0)"/>
    <use xlink:href="#STIXTwoText-Regular-74" transform="translate(593.399826 0)"/>
    <use xlink:href="#STIXTwoText-Regular-68" transform="translate(624.899811 0)"/>
    <use xlink:href="#STIXTwoText-Regular-65" transform="translate(682.599808 0)"/>
    <use xlink:href="#STIXTwoText-Regular-20" transform="translate(728.999802 0)"/>
    <use xlink:href="#STIXTwoText-Regular-6c" transform="translate(752.499786 0)"/>
    <use xlink:href="#STIXTwoText-Regular-6f" transform="translate(780.799774 0)"/>
    <use xlink:href="#STIXTwoText-Regular-67" transform="translate(832.199768 0)"/>
    <use xlink:href="#STIXTwoText-Regular-2d" transform="translate(880.599762 0)"/>
    <use xlink:href="#STIXTwoText-Regular-63" transform="translate(912.099747 0)"/>
    <use xlink:href="#STIXTwoText-Regular-75" transform="translate(956.699738 0)"/>
    <use xlink:href="#STIXTwoText-Regular-6d" transform="translate(1013.699722 0)"/>
    <use xlink:href="#STIXTwoText-Regular-75" transform="translate(1098.899704 0)"/>
    <use xlink:href="#STIXTwoText-Regular-6c" transform="translate(1155.899689 0)"/>
    <use xlink:href="#STIXTwoText-Regular-61" transform="translate(1184.199677 0)"/>
    <use xlink:href="#STIXTwoText-Regular-6e" transform="translate(1232.199661 0)"/>
    <use xlink:href="#STIXTwoText-Regular-74" transform="translate(1289.799652 0)"/>
    <use xlink:href="#STIXTwoText-Regular-73" transform="translate(1321.299637 0)"/>
   </g>
  </g>
 </g>
 <defs>
  <clipPath id="p52bafa6ac0">
   <rect x="61.32774" y="33.561207" width="283.794356" height="130.920584"/>
  </clipPath>
  <clipPath id="pb355001829">
   <rect x="419.147096" y="33.561207" width="283.794356" height="130.920584"/>
  </clipPath>
 </defs>
</svg>
