<?xml version="1.0" encoding="utf-8" standalone="no"?>
<!DOCTYPE svg PUBLIC "-//W3C//DTD SVG 1.1//EN"
  "http://www.w3.org/Graphics/SVG/1.1/DTD/svg11.dtd">
<svg xmlns:xlink="http://www.w3.org/1999/xlink" width="432pt" height="288pt" viewBox="0 0 432 288" xmlns="http://www.w3.org/2000/svg" version="1.1">
 <metadata>
  <rdf:RDF xmlns:dc="http://purl.org/dc/elements/1.1/" xmlns:cc="http://creativecommons.org/ns#" xmlns:rdf="http://www.w3.org/1999/02/22-rdf-syntax-ns#">
   <cc:Work>
    <dc:type rdf:resource="http://purl.org/dc/dcmitype/StillImage"/>
    <dc:date>2025-05-03T17:01:32.959053</dc:date>
    <dc:format>image/svg+xml</dc:format>
    <dc:creator>
     <cc:Agent>
      <dc:title>Matplotlib v3.10.1, https://matplotlib.org/</dc:title>
     </cc:Agent>
    </dc:creator>
   </cc:Work>
  </rdf:RDF>
 </metadata>
 <defs>
  <style type="text/css">*{stroke-linejoin: round; stroke-linecap: butt}</style>
 </defs>
 <g id="figure_1">
  <g id="patch_1">
   <path d="M 0 288 
L 432 288 
L 432 0 
L 0 0 
z
" style="fill: #ffffff"/>
  </g>
  <g id="axes_1">
   <g id="patch_2">
    <path d="M 47.544615 245.121791 
L 428.99976 245.121791 
L 428.99976 21.833677 
L 47.544615 21.833677 
z
" style="fill: #ffffff"/>
   </g>
   <g id="matplotlib.axis_1">
    <g id="xtick_1">
     <g id="line2d_1">
      <defs>
       <path id="mc814b04c2d" d="M 0 0 
L 0 -9 
" style="stroke: #262626; stroke-width: 1.875"/>
      </defs>
      <g>
       <use xlink:href="#mc814b04c2d" x="79.332544" y="245.121791" style="fill: #262626; stroke: #262626; stroke-width: 1.875"/>
      </g>
     </g>
     <g id="text_1">
      <!-- 0.4 -->
      <g style="fill: #262626" transform="translate(69.143794 260.26976) scale(0.165 -0.165)">
       <defs>
        <path id="STIXTwoText-Regular-30" d="M 1581 -70 
C 2586 -70 2995 934 2995 2029 
C 2995 3347 2419 4109 1594 4109 
C 666 4109 173 3264 173 2048 
C 173 915 550 -70 1581 -70 
z
M 1581 160 
C 1069 160 787 774 787 2016 
C 787 3283 1069 3891 1574 3891 
C 2099 3891 2374 3290 2374 1990 
C 2374 762 2086 160 1581 160 
z
" transform="scale(0.015625)"/>
        <path id="STIXTwoText-Regular-2e" d="M 774 -51 
C 1030 -51 1171 122 1171 320 
C 1171 538 1030 730 781 730 
C 544 730 397 544 397 326 
C 397 109 518 -51 774 -51 
z
" transform="scale(0.015625)"/>
        <path id="STIXTwoText-Regular-34" d="M 2426 0 
L 2426 1011 
L 3078 1011 
L 3078 1453 
L 2426 1453 
L 2426 4128 
L 2035 4128 
L 83 1414 
L 83 1011 
L 1856 1011 
L 1856 0 
L 2426 0 
z
M 435 1478 
L 1830 3430 
L 1856 3430 
L 1856 1453 
L 435 1453 
L 435 1478 
z
" transform="scale(0.015625)"/>
       </defs>
       <use xlink:href="#STIXTwoText-Regular-30"/>
       <use xlink:href="#STIXTwoText-Regular-2e" transform="translate(49.499985 0)"/>
       <use xlink:href="#STIXTwoText-Regular-34" transform="translate(73.999969 0)"/>
      </g>
     </g>
    </g>
    <g id="xtick_2">
     <g id="line2d_2">
      <g>
       <use xlink:href="#mc814b04c2d" x="142.908401" y="245.121791" style="fill: #262626; stroke: #262626; stroke-width: 1.875"/>
      </g>
     </g>
     <g id="text_2">
      <!-- 0.6 -->
      <g style="fill: #262626" transform="translate(132.719651 260.26976) scale(0.165 -0.165)">
       <defs>
        <path id="STIXTwoText-Regular-36" d="M 1658 -77 
C 2464 -77 2925 429 2925 1299 
C 2925 2138 2470 2643 1773 2643 
C 1440 2643 1203 2502 941 2246 
L 896 2253 
C 1056 3187 1773 3814 2669 3949 
L 2656 4134 
C 1280 4077 288 3187 288 1645 
C 288 704 704 -77 1658 -77 
z
M 1683 147 
C 1126 147 864 717 864 1510 
C 864 2067 1210 2272 1581 2272 
C 2112 2272 2368 1824 2368 1248 
C 2368 435 2112 147 1683 147 
z
" transform="scale(0.015625)"/>
       </defs>
       <use xlink:href="#STIXTwoText-Regular-30"/>
       <use xlink:href="#STIXTwoText-Regular-2e" transform="translate(49.499985 0)"/>
       <use xlink:href="#STIXTwoText-Regular-36" transform="translate(73.999969 0)"/>
      </g>
     </g>
    </g>
    <g id="xtick_3">
     <g id="line2d_3">
      <g>
       <use xlink:href="#mc814b04c2d" x="206.484259" y="245.121791" style="fill: #262626; stroke: #262626; stroke-width: 1.875"/>
      </g>
     </g>
     <g id="text_3">
      <!-- $c_1$ -->
      <g style="fill: #262626" transform="translate(199.554259 260.26976) scale(0.165 -0.165)">
       <defs>
        <path id="STIXGeneral-Italic-63" d="M 2240 685 
L 2342 621 
Q 2048 250 1769 90 
Q 1491 -70 1133 -70 
Q 678 -70 435 179 
Q 192 429 192 915 
Q 192 1344 409 1744 
Q 627 2144 979 2432 
Q 1472 2822 2048 2822 
Q 2342 2822 2531 2675 
Q 2720 2528 2720 2304 
Q 2720 2176 2630 2086 
Q 2541 1997 2413 1997 
Q 2285 1997 2224 2070 
Q 2163 2144 2163 2253 
Q 2163 2310 2211 2403 
Q 2259 2496 2259 2560 
Q 2259 2688 2022 2688 
Q 1619 2688 1325 2381 
Q 742 1766 742 890 
Q 742 544 889 352 
Q 1037 160 1312 160 
Q 1562 160 1766 281 
Q 1971 403 2240 685 
z
" transform="scale(0.015625)"/>
        <path id="STIXGeneral-Regular-31" d="M 2522 0 
L 755 0 
L 755 96 
Q 1107 115 1235 227 
Q 1363 339 1363 608 
L 1363 3482 
Q 1363 3795 1171 3795 
Q 1082 3795 883 3718 
L 710 3654 
L 710 3744 
L 1856 4326 
L 1914 4307 
L 1914 486 
Q 1914 275 2042 185 
Q 2170 96 2522 96 
L 2522 0 
z
" transform="scale(0.015625)"/>
       </defs>
       <use xlink:href="#STIXGeneral-Italic-63" transform="translate(0 0.90625)"/>
       <use xlink:href="#STIXGeneral-Regular-31" transform="translate(44.399994 -12.321875) scale(0.7)"/>
      </g>
     </g>
    </g>
    <g id="xtick_4">
     <g id="line2d_4">
      <g>
       <use xlink:href="#mc814b04c2d" x="270.060116" y="245.121791" style="fill: #262626; stroke: #262626; stroke-width: 1.875"/>
      </g>
     </g>
     <g id="text_4">
      <!-- 1 -->
      <g style="fill: #262626" transform="translate(265.976366 260.26976) scale(0.165 -0.165)">
       <defs>
        <path id="STIXTwoText-Regular-31" d="M 2726 0 
L 2726 179 
C 2138 179 1901 294 1901 608 
L 1901 4090 
L 1715 4090 
L 474 3738 
L 474 3526 
C 672 3590 998 3629 1126 3629 
C 1286 3629 1338 3539 1338 3315 
L 1338 608 
C 1338 288 1114 179 512 179 
L 512 0 
L 2726 0 
z
" transform="scale(0.015625)"/>
       </defs>
       <use xlink:href="#STIXTwoText-Regular-31"/>
      </g>
     </g>
    </g>
    <g id="xtick_5">
     <g id="line2d_5">
      <g>
       <use xlink:href="#mc814b04c2d" x="333.635974" y="245.121791" style="fill: #262626; stroke: #262626; stroke-width: 1.875"/>
      </g>
     </g>
     <g id="text_5">
      <!-- 1.2 -->
      <g style="fill: #262626" transform="translate(323.447224 260.26976) scale(0.165 -0.165)">
       <defs>
        <path id="STIXTwoText-Regular-32" d="M 2765 0 
L 2970 1024 
L 2784 1024 
C 2637 640 2554 506 2214 506 
L 1325 506 
L 877 486 
L 877 518 
L 1722 1318 
C 2400 2003 2765 2445 2765 3014 
C 2765 3686 2259 4122 1536 4122 
C 915 4122 480 3763 282 3142 
L 435 3078 
C 672 3558 954 3706 1370 3706 
C 1862 3706 2170 3398 2170 2918 
C 2170 2246 1850 1843 1216 1190 
L 243 218 
L 243 0 
L 2765 0 
z
" transform="scale(0.015625)"/>
       </defs>
       <use xlink:href="#STIXTwoText-Regular-31"/>
       <use xlink:href="#STIXTwoText-Regular-2e" transform="translate(49.499985 0)"/>
       <use xlink:href="#STIXTwoText-Regular-32" transform="translate(73.999969 0)"/>
      </g>
     </g>
    </g>
    <g id="xtick_6">
     <g id="line2d_6">
      <g>
       <use xlink:href="#mc814b04c2d" x="397.211831" y="245.121791" style="fill: #262626; stroke: #262626; stroke-width: 1.875"/>
      </g>
     </g>
     <g id="text_6">
      <!-- 1.4 -->
      <g style="fill: #262626" transform="translate(387.023081 260.26976) scale(0.165 -0.165)">
       <use xlink:href="#STIXTwoText-Regular-31"/>
       <use xlink:href="#STIXTwoText-Regular-2e" transform="translate(49.499985 0)"/>
       <use xlink:href="#STIXTwoText-Regular-34" transform="translate(73.999969 0)"/>
      </g>
     </g>
    </g>
    <g id="text_7">
     <!-- Regularity $h$ -->
     <g style="fill: #262626" transform="translate(192.012188 280.67976) scale(0.18 -0.18)">
      <defs>
       <path id="STIXTwoText-Regular-52" d="M 2074 0 
L 2074 192 
C 1523 192 1440 262 1440 794 
L 1440 1926 
L 1619 1926 
C 1850 1926 1920 1907 2048 1715 
C 2310 1331 2496 1056 3194 0 
L 4250 0 
L 4250 192 
C 3955 192 3795 237 3590 518 
C 2886 1523 2637 1882 2419 2010 
L 2419 2035 
C 2938 2157 3501 2438 3501 3155 
C 3501 3968 2810 4205 1850 4205 
L 275 4205 
L 275 4013 
C 787 4013 845 3891 845 3539 
L 845 794 
C 845 256 755 192 275 192 
L 275 0 
L 2074 0 
z
M 1440 2176 
L 1440 3936 
C 1574 3949 1722 3955 1862 3955 
C 2554 3955 2854 3642 2854 3130 
C 2854 2451 2387 2202 1683 2170 
L 1440 2176 
z
" transform="scale(0.015625)"/>
       <path id="STIXTwoText-Regular-65" d="M 1581 -64 
C 2240 -64 2547 339 2778 826 
L 2656 915 
C 2451 646 2253 416 1734 416 
C 1210 416 742 832 730 1702 
L 2758 1702 
C 2726 2598 2266 3104 1568 3104 
C 819 3104 218 2592 218 1523 
C 218 493 813 -64 1581 -64 
z
M 736 1939 
C 781 2522 1024 2848 1472 2848 
C 1926 2848 2138 2413 2157 1939 
L 736 1939 
z
" transform="scale(0.015625)"/>
       <path id="STIXTwoText-Regular-67" d="M 1222 -1504 
C 2029 -1504 2976 -1210 2976 -352 
C 2976 384 2362 410 1555 410 
C 966 410 800 474 800 666 
C 800 774 902 1005 966 1094 
C 1133 1037 1312 998 1517 998 
C 2189 998 2650 1376 2650 1971 
C 2650 2291 2509 2502 2419 2630 
L 2419 2662 
L 3021 2643 
L 3021 2989 
L 2202 2944 
C 1997 3046 1754 3104 1485 3104 
C 806 3104 326 2701 326 2061 
C 326 1645 512 1363 819 1190 
L 819 1178 
C 518 947 294 678 294 448 
C 294 250 474 64 653 -13 
L 653 -38 
C 307 -371 134 -589 134 -800 
C 134 -1152 384 -1504 1222 -1504 
z
M 813 -64 
C 902 -64 1024 -70 1536 -77 
C 1555 -77 1574 -77 1594 -77 
C 2022 -83 2650 -90 2650 -531 
C 2650 -806 2349 -1139 1594 -1139 
C 941 -1139 634 -954 634 -582 
C 634 -448 678 -301 813 -64 
z
M 1523 1222 
C 1107 1222 890 1536 890 2086 
C 890 2624 1107 2874 1440 2874 
C 1850 2874 2080 2528 2080 2010 
C 2080 1402 1843 1222 1523 1222 
z
" transform="scale(0.015625)"/>
       <path id="STIXTwoText-Regular-75" d="M 1421 -64 
C 1830 -64 2131 128 2470 461 
L 2502 461 
L 2502 -32 
L 2643 -32 
L 3456 115 
L 3456 288 
L 3392 288 
C 3085 288 3008 333 3008 710 
L 3008 3059 
L 2854 3059 
L 1958 2963 
L 1958 2784 
C 2368 2784 2477 2752 2477 2413 
L 2477 730 
C 2221 506 2016 346 1690 346 
C 1357 346 1114 538 1114 1190 
L 1114 3059 
L 973 3059 
L 147 2963 
L 147 2784 
C 493 2778 582 2752 582 2406 
L 582 1107 
C 582 237 890 -64 1421 -64 
z
" transform="scale(0.015625)"/>
       <path id="STIXTwoText-Regular-6c" d="M 1664 0 
L 1664 186 
C 1203 186 1171 275 1171 646 
L 1171 4518 
L 1011 4518 
L 166 4294 
L 166 4122 
C 166 4122 262 4134 371 4134 
C 531 4134 640 4122 640 3859 
L 640 646 
C 640 288 614 186 192 186 
L 192 0 
L 1664 0 
z
" transform="scale(0.015625)"/>
       <path id="STIXTwoText-Regular-61" d="M 1005 -45 
C 1414 -45 1645 134 1946 397 
L 1971 397 
C 2010 115 2074 -32 2355 -32 
C 2682 -32 2835 102 3046 410 
L 2950 512 
C 2861 416 2771 352 2650 352 
C 2515 352 2458 403 2458 666 
L 2458 2118 
C 2458 2784 2195 3104 1498 3104 
C 800 3104 371 2758 371 2400 
C 371 2189 512 2093 640 2093 
C 819 2093 922 2189 922 2387 
C 922 2771 986 2906 1350 2906 
C 1734 2906 1926 2694 1926 2138 
L 1926 1856 
C 1376 1683 243 1517 243 672 
C 243 262 512 -45 1005 -45 
z
M 1926 589 
C 1709 410 1478 307 1267 307 
C 992 307 806 506 806 826 
C 806 1325 1344 1498 1926 1645 
L 1926 589 
z
" transform="scale(0.015625)"/>
       <path id="STIXTwoText-Regular-72" d="M 1786 0 
L 1786 186 
C 1306 186 1184 250 1184 653 
L 1184 2112 
C 1338 2368 1542 2637 1690 2637 
C 1766 2637 1894 2419 2106 2419 
C 2246 2419 2387 2522 2387 2765 
C 2387 2982 2266 3123 2016 3123 
C 1709 3123 1517 2899 1190 2426 
L 1171 2426 
L 1171 3085 
L 1018 3085 
L 224 2893 
L 224 2714 
C 224 2714 294 2726 422 2726 
C 653 2726 653 2611 653 2381 
L 653 621 
C 653 262 608 186 186 186 
L 186 0 
L 1786 0 
z
" transform="scale(0.015625)"/>
       <path id="STIXTwoText-Regular-69" d="M 1645 0 
L 1645 179 
C 1216 179 1184 275 1184 646 
L 1184 3085 
L 1018 3085 
L 211 2906 
L 211 2720 
C 211 2720 282 2733 371 2733 
C 557 2733 653 2707 653 2432 
L 653 646 
C 653 282 634 179 205 179 
L 205 0 
L 1645 0 
z
M 928 3584 
C 1152 3584 1293 3750 1293 3949 
C 1293 4141 1152 4307 928 4307 
C 704 4307 563 4141 563 3949 
C 563 3750 710 3584 928 3584 
z
" transform="scale(0.015625)"/>
       <path id="STIXTwoText-Regular-74" d="M 1875 576 
C 1715 397 1632 314 1427 314 
C 1178 314 1120 467 1120 922 
L 1120 2726 
L 1843 2726 
L 1843 2995 
L 1120 2995 
L 1120 3904 
L 960 3904 
C 730 3360 538 3059 237 2874 
L 237 2726 
L 589 2726 
L 589 742 
C 589 166 774 -64 1203 -64 
C 1613 -64 1747 128 1997 474 
L 1875 576 
z
" transform="scale(0.015625)"/>
       <path id="STIXTwoText-Regular-79" d="M 493 -1504 
C 1037 -1504 1344 -1120 1715 -141 
L 2714 2483 
C 2803 2733 2899 2842 3155 2842 
L 3155 3027 
L 2067 3027 
L 2067 2842 
C 2278 2842 2426 2810 2426 2682 
C 2426 2637 2406 2566 2394 2522 
L 1773 666 
L 1728 666 
L 1645 979 
L 1018 2387 
C 979 2477 928 2586 928 2669 
C 928 2778 1005 2835 1293 2835 
L 1293 3027 
L -77 3027 
L -77 2842 
C 154 2842 243 2758 307 2611 
L 1248 557 
C 1325 384 1440 115 1440 32 
C 1440 -154 1056 -1037 826 -1037 
C 736 -1037 550 -896 333 -896 
C 166 -896 38 -979 38 -1171 
C 38 -1414 230 -1504 493 -1504 
z
" transform="scale(0.015625)"/>
       <path id="STIXTwoText-Regular-20" transform="scale(0.015625)"/>
       <path id="STIXGeneral-Italic-68" d="M 2976 755 
L 3059 672 
Q 2765 256 2566 99 
Q 2368 -58 2125 -58 
Q 1997 -58 1920 16 
Q 1843 90 1843 211 
Q 1843 320 1971 800 
L 2323 2125 
Q 2368 2304 2368 2336 
Q 2368 2496 2189 2496 
Q 2016 2496 1744 2240 
Q 1472 1984 1216 1600 
Q 1018 1293 902 1001 
Q 787 710 602 0 
L 122 0 
L 1056 3546 
Q 1139 3866 1139 3942 
Q 1139 4019 1056 4060 
Q 973 4102 877 4102 
L 704 4102 
L 704 4198 
Q 1190 4256 1709 4371 
L 1754 4333 
L 979 1472 
Q 1811 2822 2451 2822 
Q 2662 2822 2764 2704 
Q 2867 2586 2867 2394 
Q 2867 2118 2560 1158 
Q 2349 512 2349 358 
Q 2349 243 2451 243 
Q 2528 243 2621 336 
Q 2714 429 2976 755 
z
" transform="scale(0.015625)"/>
      </defs>
      <use xlink:href="#STIXTwoText-Regular-52" transform="translate(0 0.40625)"/>
      <use xlink:href="#STIXTwoText-Regular-65" transform="translate(65.899994 0.40625)"/>
      <use xlink:href="#STIXTwoText-Regular-67" transform="translate(112.299988 0.40625)"/>
      <use xlink:href="#STIXTwoText-Regular-75" transform="translate(160.699982 0.40625)"/>
      <use xlink:href="#STIXTwoText-Regular-6c" transform="translate(217.699966 0.40625)"/>
      <use xlink:href="#STIXTwoText-Regular-61" transform="translate(245.999954 0.40625)"/>
      <use xlink:href="#STIXTwoText-Regular-72" transform="translate(293.999939 0.40625)"/>
      <use xlink:href="#STIXTwoText-Regular-69" transform="translate(331.999924 0.40625)"/>
      <use xlink:href="#STIXTwoText-Regular-74" transform="translate(360.499908 0.40625)"/>
      <use xlink:href="#STIXTwoText-Regular-79" transform="translate(391.999893 0.40625)"/>
      <use xlink:href="#STIXTwoText-Regular-20" transform="translate(440.299881 0.40625)"/>
      <use xlink:href="#STIXGeneral-Italic-68" transform="translate(463.799866 0.40625)"/>
     </g>
    </g>
   </g>
   <g id="matplotlib.axis_2">
    <g id="ytick_1">
     <g id="line2d_7">
      <defs>
       <path id="m4d53f52f5c" d="M 0 0 
L 9 0 
" style="stroke: #262626; stroke-width: 1.875"/>
      </defs>
      <g>
       <use xlink:href="#m4d53f52f5c" x="47.544615" y="245.121791" style="fill: #262626; stroke: #262626; stroke-width: 1.875"/>
      </g>
     </g>
     <g id="text_8">
      <!-- 0.0 -->
      <g style="fill: #262626" transform="translate(23.667115 250.945776) scale(0.165 -0.165)">
       <use xlink:href="#STIXTwoText-Regular-30"/>
       <use xlink:href="#STIXTwoText-Regular-2e" transform="translate(49.499985 0)"/>
       <use xlink:href="#STIXTwoText-Regular-30" transform="translate(73.999969 0)"/>
      </g>
     </g>
    </g>
    <g id="ytick_2">
     <g id="line2d_8">
      <g>
       <use xlink:href="#m4d53f52f5c" x="47.544615" y="204.523952" style="fill: #262626; stroke: #262626; stroke-width: 1.875"/>
      </g>
     </g>
     <g id="text_9">
      <!-- 0.2 -->
      <g style="fill: #262626" transform="translate(23.667115 210.347937) scale(0.165 -0.165)">
       <use xlink:href="#STIXTwoText-Regular-30"/>
       <use xlink:href="#STIXTwoText-Regular-2e" transform="translate(49.499985 0)"/>
       <use xlink:href="#STIXTwoText-Regular-32" transform="translate(73.999969 0)"/>
      </g>
     </g>
    </g>
    <g id="ytick_3">
     <g id="line2d_9">
      <g>
       <use xlink:href="#m4d53f52f5c" x="47.544615" y="163.926114" style="fill: #262626; stroke: #262626; stroke-width: 1.875"/>
      </g>
     </g>
     <g id="text_10">
      <!-- 0.4 -->
      <g style="fill: #262626" transform="translate(23.667115 169.750098) scale(0.165 -0.165)">
       <use xlink:href="#STIXTwoText-Regular-30"/>
       <use xlink:href="#STIXTwoText-Regular-2e" transform="translate(49.499985 0)"/>
       <use xlink:href="#STIXTwoText-Regular-34" transform="translate(73.999969 0)"/>
      </g>
     </g>
    </g>
    <g id="ytick_4">
     <g id="line2d_10">
      <g>
       <use xlink:href="#m4d53f52f5c" x="47.544615" y="123.328275" style="fill: #262626; stroke: #262626; stroke-width: 1.875"/>
      </g>
     </g>
     <g id="text_11">
      <!-- 0.6 -->
      <g style="fill: #262626" transform="translate(23.667115 129.152259) scale(0.165 -0.165)">
       <use xlink:href="#STIXTwoText-Regular-30"/>
       <use xlink:href="#STIXTwoText-Regular-2e" transform="translate(49.499985 0)"/>
       <use xlink:href="#STIXTwoText-Regular-36" transform="translate(73.999969 0)"/>
      </g>
     </g>
    </g>
    <g id="ytick_5">
     <g id="line2d_11">
      <g>
       <use xlink:href="#m4d53f52f5c" x="47.544615" y="82.730436" style="fill: #262626; stroke: #262626; stroke-width: 1.875"/>
      </g>
     </g>
     <g id="text_12">
      <!-- 0.8 -->
      <g style="fill: #262626" transform="translate(23.667115 88.55442) scale(0.165 -0.165)">
       <defs>
        <path id="STIXTwoText-Regular-38" d="M 1574 -77 
C 2336 -77 2867 288 2867 960 
C 2867 1472 2630 1779 1888 2234 
L 1888 2253 
C 2483 2579 2714 2790 2714 3258 
C 2714 3763 2227 4141 1594 4141 
C 890 4141 378 3776 378 3194 
C 378 2758 518 2496 1171 2042 
L 1171 2022 
C 576 1626 294 1421 294 909 
C 294 256 832 -77 1574 -77 
z
M 1370 1920 
C 2138 1421 2330 1184 2330 774 
C 2330 339 1997 122 1600 122 
C 1114 122 794 384 794 960 
C 794 1402 998 1626 1370 1920 
z
M 1690 2355 
C 1120 2701 877 2931 877 3309 
C 877 3699 1146 3930 1581 3930 
C 1990 3930 2240 3693 2240 3270 
C 2240 2861 2112 2611 1690 2355 
z
" transform="scale(0.015625)"/>
       </defs>
       <use xlink:href="#STIXTwoText-Regular-30"/>
       <use xlink:href="#STIXTwoText-Regular-2e" transform="translate(49.499985 0)"/>
       <use xlink:href="#STIXTwoText-Regular-38" transform="translate(73.999969 0)"/>
      </g>
     </g>
    </g>
    <g id="ytick_6">
     <g id="line2d_12">
      <g>
       <use xlink:href="#m4d53f52f5c" x="47.544615" y="42.132597" style="fill: #262626; stroke: #262626; stroke-width: 1.875"/>
      </g>
     </g>
     <g id="text_13">
      <!-- 1.0 -->
      <g style="fill: #262626" transform="translate(23.667115 47.956581) scale(0.165 -0.165)">
       <use xlink:href="#STIXTwoText-Regular-31"/>
       <use xlink:href="#STIXTwoText-Regular-2e" transform="translate(49.499985 0)"/>
       <use xlink:href="#STIXTwoText-Regular-30" transform="translate(73.999969 0)"/>
      </g>
     </g>
    </g>
    <g id="text_14">
     <!-- Fractal Dimension  $D(h)$ -->
     <g style="fill: #262626" transform="translate(15.707115 225.727734) rotate(-90) scale(0.18 -0.18)">
      <defs>
       <path id="STIXTwoText-Regular-46" d="M 2106 0 
L 2106 192 
C 1606 192 1440 269 1440 704 
L 1440 2048 
L 2195 2048 
C 2746 2048 2874 1965 2874 1446 
L 3091 1446 
L 3091 2931 
L 2874 2931 
C 2874 2413 2746 2298 2195 2298 
L 1440 2298 
L 1440 3917 
L 2458 3917 
C 3296 3917 3354 3763 3469 3155 
L 3674 3155 
L 3635 4205 
L 230 4205 
L 230 4013 
C 691 4013 851 3923 851 3482 
L 851 742 
C 851 269 749 192 230 192 
L 230 0 
L 2106 0 
z
" transform="scale(0.015625)"/>
       <path id="STIXTwoText-Regular-63" d="M 2611 947 
C 2323 576 2106 416 1690 416 
C 1030 416 717 966 717 1747 
C 717 2483 1030 2867 1549 2867 
C 2099 2867 1888 2138 2362 2138 
C 2541 2138 2630 2240 2630 2426 
C 2630 2797 2259 3104 1658 3104 
C 736 3104 211 2451 211 1446 
C 211 557 691 -64 1491 -64 
C 2176 -64 2490 339 2733 858 
L 2611 947 
z
" transform="scale(0.015625)"/>
       <path id="STIXTwoText-Regular-44" d="M 2054 0 
C 3437 0 4352 653 4352 2125 
C 4352 3686 3315 4205 1984 4205 
L 224 4205 
L 224 4013 
C 704 4013 851 3942 851 3475 
L 851 794 
C 851 275 787 192 224 192 
L 224 0 
L 2054 0 
z
M 1818 243 
C 1690 243 1568 250 1440 262 
L 1440 3930 
C 1562 3942 1651 3942 1754 3942 
C 3078 3942 3680 3283 3680 2067 
C 3680 627 2982 243 1818 243 
z
" transform="scale(0.015625)"/>
       <path id="STIXTwoText-Regular-6d" d="M 3520 0 
L 3520 186 
C 3059 186 3027 301 3027 742 
L 3027 2298 
C 3238 2477 3501 2694 3763 2694 
C 4064 2694 4314 2554 4314 1971 
L 4314 742 
C 4314 352 4294 186 3859 186 
L 3859 0 
L 5306 0 
L 5306 186 
C 4864 186 4845 339 4845 742 
L 4845 2048 
C 4845 2822 4518 3104 4019 3104 
C 3680 3104 3354 2918 3002 2573 
L 2976 2573 
C 2848 2880 2630 3104 2266 3104 
C 1830 3104 1536 2867 1190 2566 
L 1165 2566 
L 1165 3085 
L 1011 3085 
L 211 2899 
L 211 2714 
C 211 2714 288 2726 384 2726 
C 563 2726 653 2669 653 2438 
L 653 646 
C 653 262 608 186 205 186 
L 205 0 
L 1664 0 
L 1664 186 
C 1267 186 1184 262 1184 621 
L 1184 2285 
C 1363 2458 1651 2694 1984 2694 
C 2278 2694 2496 2554 2496 2010 
L 2496 742 
C 2496 294 2458 186 2003 186 
L 2003 0 
L 3520 0 
z
" transform="scale(0.015625)"/>
       <path id="STIXTwoText-Regular-6e" d="M 3552 0 
L 3552 179 
C 3123 179 3078 288 3078 646 
L 3078 1965 
C 3078 2701 2803 3104 2221 3104 
C 1818 3104 1536 2874 1190 2566 
L 1165 2566 
L 1171 3085 
L 1024 3085 
L 211 2899 
L 211 2714 
C 211 2714 275 2726 384 2726 
C 557 2726 653 2675 653 2445 
L 653 646 
C 653 288 634 179 205 179 
L 205 0 
L 1670 0 
L 1670 179 
C 1210 179 1184 288 1184 646 
L 1184 2291 
C 1376 2464 1613 2694 1958 2694 
C 2246 2694 2547 2573 2547 1805 
L 2547 646 
C 2547 288 2528 179 2074 179 
L 2074 0 
L 3552 0 
z
" transform="scale(0.015625)"/>
       <path id="STIXTwoText-Regular-73" d="M 269 -51 
L 403 -51 
L 538 96 
L 550 96 
C 717 26 909 -70 1280 -70 
C 1856 -70 2355 160 2355 762 
C 2355 1235 2042 1472 1459 1779 
C 922 2054 710 2214 710 2464 
C 710 2752 934 2886 1229 2886 
C 1619 2886 1856 2701 1997 2093 
L 2170 2093 
L 2150 3072 
L 2022 3072 
L 1914 2938 
L 1907 2938 
C 1747 3014 1555 3104 1235 3104 
C 685 3104 256 2822 256 2298 
C 256 1824 518 1600 1101 1306 
C 1696 1011 1818 890 1818 589 
C 1818 288 1587 166 1267 166 
C 794 166 550 390 416 1050 
L 250 1050 
L 269 -51 
z
" transform="scale(0.015625)"/>
       <path id="STIXTwoText-Regular-6f" d="M 1651 -64 
C 2483 -64 3072 499 3072 1574 
C 3072 2522 2528 3104 1651 3104 
C 787 3104 218 2477 218 1549 
C 218 512 755 -64 1651 -64 
z
M 1677 192 
C 1126 186 813 614 813 1632 
C 813 2451 1139 2861 1626 2861 
C 2195 2861 2483 2330 2483 1542 
C 2483 499 2202 192 1677 192 
z
" transform="scale(0.015625)"/>
       <path id="STIXGeneral-Italic-44" d="M 838 4179 
L 2611 4179 
Q 3469 4179 3974 3731 
Q 4480 3283 4480 2458 
Q 4480 1325 3456 531 
Q 2778 0 1594 0 
L -51 0 
L -51 102 
Q 224 154 310 230 
Q 397 307 474 589 
L 1254 3437 
Q 1325 3686 1325 3814 
Q 1325 3949 1222 4009 
Q 1120 4070 838 4077 
L 838 4179 
z
M 1984 3738 
L 1229 1037 
Q 1088 525 1088 429 
Q 1088 192 1523 192 
Q 2470 192 3066 768 
Q 3398 1088 3584 1597 
Q 3770 2106 3770 2611 
Q 3770 3386 3270 3763 
Q 2970 3987 2432 3987 
Q 2227 3987 2128 3939 
Q 2029 3891 1984 3738 
z
" transform="scale(0.015625)"/>
       <path id="STIXGeneral-Regular-28" d="M 1946 -1030 
L 1869 -1133 
Q 1126 -710 716 32 
Q 307 774 307 1613 
Q 307 3386 1888 4326 
L 1946 4224 
Q 1293 3667 1075 3126 
Q 858 2586 858 1632 
Q 858 685 1082 96 
Q 1306 -493 1946 -1030 
z
" transform="scale(0.015625)"/>
       <path id="STIXGeneral-Regular-29" d="M 186 4224 
L 262 4326 
Q 992 3891 1408 3148 
Q 1824 2406 1824 1581 
Q 1824 -166 243 -1133 
L 186 -1030 
Q 845 -486 1059 54 
Q 1274 595 1274 1562 
Q 1274 2534 1059 3120 
Q 845 3706 186 4224 
z
" transform="scale(0.015625)"/>
      </defs>
      <use xlink:href="#STIXTwoText-Regular-46" transform="translate(0 0.40625)"/>
      <use xlink:href="#STIXTwoText-Regular-72" transform="translate(58.799988 0.40625)"/>
      <use xlink:href="#STIXTwoText-Regular-61" transform="translate(96.799973 0.40625)"/>
      <use xlink:href="#STIXTwoText-Regular-63" transform="translate(144.799957 0.40625)"/>
      <use xlink:href="#STIXTwoText-Regular-74" transform="translate(189.399948 0.40625)"/>
      <use xlink:href="#STIXTwoText-Regular-61" transform="translate(220.899933 0.40625)"/>
      <use xlink:href="#STIXTwoText-Regular-6c" transform="translate(268.899918 0.40625)"/>
      <use xlink:href="#STIXTwoText-Regular-20" transform="translate(297.199905 0.40625)"/>
      <use xlink:href="#STIXTwoText-Regular-44" transform="translate(320.69989 0.40625)"/>
      <use xlink:href="#STIXTwoText-Regular-69" transform="translate(393.699875 0.40625)"/>
      <use xlink:href="#STIXTwoText-Regular-6d" transform="translate(422.19986 0.40625)"/>
      <use xlink:href="#STIXTwoText-Regular-65" transform="translate(507.399841 0.40625)"/>
      <use xlink:href="#STIXTwoText-Regular-6e" transform="translate(553.799835 0.40625)"/>
      <use xlink:href="#STIXTwoText-Regular-73" transform="translate(611.399826 0.40625)"/>
      <use xlink:href="#STIXTwoText-Regular-69" transform="translate(650.899811 0.40625)"/>
      <use xlink:href="#STIXTwoText-Regular-6f" transform="translate(679.399796 0.40625)"/>
      <use xlink:href="#STIXTwoText-Regular-6e" transform="translate(730.799789 0.40625)"/>
      <use xlink:href="#STIXTwoText-Regular-20" transform="translate(788.39978 0.40625)"/>
      <use xlink:href="#STIXTwoText-Regular-20" transform="translate(811.899765 0.40625)"/>
      <use xlink:href="#STIXGeneral-Italic-44" transform="translate(835.39975 0.40625)"/>
      <use xlink:href="#STIXGeneral-Regular-28" transform="translate(907.599731 0.40625)"/>
      <use xlink:href="#STIXGeneral-Italic-68" transform="translate(940.899719 0.40625)"/>
      <use xlink:href="#STIXGeneral-Regular-29" transform="translate(990.899704 0.40625)"/>
     </g>
    </g>
   </g>
   <g id="LineCollection_1">
    <path d="M 206.484259 245.121791 
L 206.484259 42.132597 
" clip-path="url(#pdc6c98555e)" style="fill: none; stroke: #165682; stroke-width: 2.25"/>
   </g>
   <g id="line2d_13">
    <path d="M 95.646189 289 
L 96.671414 284.377553 
L 101.487767 263.593994 
L 106.30412 243.742434 
L 111.120473 224.822872 
L 115.936825 206.835308 
L 120.753178 189.779742 
L 125.569531 173.656174 
L 130.385884 158.464604 
L 135.202237 144.205033 
L 140.01859 130.87746 
L 144.834942 118.481884 
L 149.651295 107.018307 
L 154.467648 96.486728 
L 159.284001 86.887147 
L 164.100354 78.219565 
L 168.916707 70.48398 
L 173.733059 63.680394 
L 178.549412 57.808806 
L 183.365765 52.869215 
L 188.182118 48.861623 
L 192.998471 45.78603 
L 197.814824 43.642434 
L 202.631176 42.430836 
L 207.447529 42.151237 
L 212.263882 42.803636 
L 217.080235 44.388032 
L 221.896588 46.904427 
L 226.712941 50.352821 
L 231.529294 54.733212 
L 236.345646 60.045601 
L 241.161999 66.289989 
L 245.978352 73.466374 
L 250.794705 81.574758 
L 255.611058 90.61514 
L 260.427411 100.58752 
L 265.243763 111.491898 
L 270.060116 123.328275 
L 274.876469 136.096649 
L 279.692822 149.797022 
L 284.509175 164.429393 
L 289.325528 179.993761 
L 294.14188 196.490128 
L 298.958233 213.918494 
L 303.774586 232.278857 
L 308.590939 251.571218 
L 313.407292 271.795578 
L 317.323966 289 
" clip-path="url(#pdc6c98555e)" style="fill: none; stroke: #363737; stroke-width: 2.25; stroke-linecap: round"/>
   </g>
   <g id="patch_3">
    <path d="M 47.544615 245.121791 
L 47.544615 21.833677 
" style="fill: none; stroke: #262626; stroke-width: 1.875; stroke-linejoin: miter; stroke-linecap: square"/>
   </g>
   <g id="patch_4">
    <path d="M 428.99976 245.121791 
L 428.99976 21.833677 
" style="fill: none; stroke: #262626; stroke-width: 1.875; stroke-linejoin: miter; stroke-linecap: square"/>
   </g>
   <g id="patch_5">
    <path d="M 47.544615 245.121791 
L 428.99976 245.121791 
" style="fill: none; stroke: #262626; stroke-width: 1.875; stroke-linejoin: miter; stroke-linecap: square"/>
   </g>
   <g id="patch_6">
    <path d="M 47.544615 21.833677 
L 428.99976 21.833677 
" style="fill: none; stroke: #262626; stroke-width: 1.875; stroke-linejoin: miter; stroke-linecap: square"/>
   </g>
   <g id="text_15">
    <!-- $c_2$ -->
    <g style="fill: #984700" transform="translate(264.974048 46.000393) scale(0.2 -0.2)">
     <defs>
      <path id="STIXGeneral-Regular-32" d="M 3034 877 
L 2688 0 
L 186 0 
L 186 77 
L 1325 1286 
Q 1773 1754 1965 2144 
Q 2157 2534 2157 2950 
Q 2157 3379 1920 3616 
Q 1683 3853 1267 3853 
Q 922 3853 720 3673 
Q 518 3494 326 3021 
L 192 3053 
Q 301 3648 630 3987 
Q 960 4326 1523 4326 
Q 2054 4326 2380 4006 
Q 2707 3686 2707 3200 
Q 2707 2477 1888 1613 
L 832 486 
L 2330 486 
Q 2541 486 2665 569 
Q 2790 653 2944 915 
L 3034 877 
z
" transform="scale(0.015625)"/>
     </defs>
     <use xlink:href="#STIXGeneral-Italic-63" transform="translate(0 0.90625)"/>
     <use xlink:href="#STIXGeneral-Regular-32" transform="translate(44.399994 -12.321875) scale(0.7)"/>
    </g>
   </g>
   <g id="text_16">
    <!-- Theoretical Multifractal Spectrum -->
    <g style="fill: #262626" transform="translate(108.779063 15.833677) scale(0.18 -0.18)">
     <defs>
      <path id="STIXTwoText-Regular-54" d="M 2861 0 
L 2861 192 
C 2310 192 2227 256 2227 838 
L 2227 3917 
L 2630 3917 
C 3341 3917 3418 3750 3558 3053 
L 3757 3053 
L 3706 4205 
L 166 4205 
L 96 3053 
L 294 3053 
C 429 3750 518 3917 1222 3917 
L 1632 3917 
L 1632 838 
C 1632 256 1542 192 1005 192 
L 1005 0 
L 2861 0 
z
" transform="scale(0.015625)"/>
      <path id="STIXTwoText-Regular-68" d="M 3558 0 
L 3558 186 
C 3155 186 3085 307 3085 646 
L 3085 1920 
C 3085 2445 2963 3104 2227 3104 
C 1888 3104 1594 2957 1190 2579 
L 1171 2579 
L 1171 4518 
L 998 4518 
L 141 4294 
L 141 4115 
C 141 4115 224 4128 326 4128 
C 499 4128 640 4096 640 3872 
L 640 595 
C 640 237 525 186 192 186 
L 192 0 
L 1645 0 
L 1645 186 
C 1203 186 1171 288 1171 621 
L 1171 2298 
C 1485 2586 1715 2694 1965 2694 
C 2483 2694 2554 2253 2554 1728 
L 2554 621 
C 2554 314 2528 186 2086 186 
L 2086 0 
L 3558 0 
z
" transform="scale(0.015625)"/>
      <path id="STIXTwoText-Regular-4d" d="M 1683 0 
L 1683 192 
C 1197 192 1101 275 1101 934 
L 1101 3514 
L 1126 3514 
L 2637 0 
L 2790 0 
L 4282 3520 
L 4307 3520 
L 4307 762 
C 4307 294 4230 192 3738 192 
L 3738 0 
L 5440 0 
L 5440 192 
C 4979 192 4877 294 4877 762 
L 4877 3430 
C 4877 3904 4979 4013 5434 4013 
L 5434 4205 
L 4218 4205 
L 2874 986 
L 2848 986 
L 1498 4205 
L 192 4205 
L 192 4013 
C 698 4013 787 3904 787 3424 
L 787 934 
C 787 275 698 192 179 192 
L 179 0 
L 1683 0 
z
" transform="scale(0.015625)"/>
      <path id="STIXTwoText-Regular-66" d="M 1837 0 
L 1837 186 
C 1306 186 1184 262 1184 762 
L 1184 2726 
L 1965 2726 
L 1965 2995 
L 1184 2995 
L 1184 3597 
C 1184 4134 1254 4326 1491 4326 
C 1645 4326 1734 4211 1818 4090 
C 1914 3968 1997 3840 2163 3840 
C 2310 3840 2426 3930 2426 4115 
C 2426 4403 2125 4563 1709 4563 
C 1261 4563 1030 4390 858 4096 
C 710 3827 659 3578 653 2995 
L 166 2995 
L 166 2726 
L 653 2726 
L 653 762 
C 653 262 582 186 115 186 
L 115 0 
L 1837 0 
z
" transform="scale(0.015625)"/>
      <path id="STIXTwoText-Regular-53" d="M 480 -96 
C 486 32 563 115 653 115 
C 800 115 1050 -77 1715 -77 
C 2458 -77 3014 326 3014 1069 
C 3014 1830 2381 2118 1811 2438 
C 1331 2714 870 2944 870 3424 
C 870 3821 1120 4026 1555 4026 
C 2202 4032 2445 3693 2624 2989 
L 2816 2989 
L 2771 4269 
L 2605 4269 
C 2573 4134 2509 4083 2406 4083 
C 2253 4083 2112 4282 1530 4282 
C 864 4275 314 3917 314 3245 
C 314 2573 832 2266 1344 1971 
C 1869 1670 2406 1446 2406 883 
C 2406 397 2106 205 1626 205 
C 973 198 646 403 422 1286 
L 224 1286 
L 282 -96 
L 480 -96 
z
" transform="scale(0.015625)"/>
      <path id="STIXTwoText-Regular-70" d="M 1760 -1408 
L 1760 -1222 
C 1261 -1222 1139 -1139 1139 -723 
L 1139 115 
L 1165 115 
C 1350 -13 1568 -64 1811 -64 
C 2579 -64 3213 582 3213 1670 
C 3213 2509 2771 3104 2138 3104 
C 1760 3104 1453 2906 1146 2547 
L 1126 2547 
L 1126 3085 
L 966 3085 
L 160 2906 
L 160 2720 
C 160 2720 282 2733 365 2733 
C 576 2733 608 2650 608 2406 
L 608 -762 
C 608 -1120 544 -1229 141 -1229 
L 141 -1408 
L 1760 -1408 
z
M 1843 186 
C 1485 186 1261 474 1139 608 
L 1139 2278 
C 1261 2438 1536 2669 1875 2669 
C 2349 2669 2630 2298 2630 1491 
C 2630 602 2291 186 1843 186 
z
" transform="scale(0.015625)"/>
     </defs>
     <use xlink:href="#STIXTwoText-Regular-54"/>
     <use xlink:href="#STIXTwoText-Regular-68" transform="translate(60.299988 0)"/>
     <use xlink:href="#STIXTwoText-Regular-65" transform="translate(117.999985 0)"/>
     <use xlink:href="#STIXTwoText-Regular-6f" transform="translate(164.399979 0)"/>
     <use xlink:href="#STIXTwoText-Regular-72" transform="translate(215.799973 0)"/>
     <use xlink:href="#STIXTwoText-Regular-65" transform="translate(253.799957 0)"/>
     <use xlink:href="#STIXTwoText-Regular-74" transform="translate(300.199951 0)"/>
     <use xlink:href="#STIXTwoText-Regular-69" transform="translate(331.699936 0)"/>
     <use xlink:href="#STIXTwoText-Regular-63" transform="translate(360.199921 0)"/>
     <use xlink:href="#STIXTwoText-Regular-61" transform="translate(404.799911 0)"/>
     <use xlink:href="#STIXTwoText-Regular-6c" transform="translate(452.799896 0)"/>
     <use xlink:href="#STIXTwoText-Regular-20" transform="translate(481.099884 0)"/>
     <use xlink:href="#STIXTwoText-Regular-4d" transform="translate(504.599869 0)"/>
     <use xlink:href="#STIXTwoText-Regular-75" transform="translate(594.099854 0)"/>
     <use xlink:href="#STIXTwoText-Regular-6c" transform="translate(651.099838 0)"/>
     <use xlink:href="#STIXTwoText-Regular-74" transform="translate(679.399826 0)"/>
     <use xlink:href="#STIXTwoText-Regular-69" transform="translate(710.899811 0)"/>
     <use xlink:href="#STIXTwoText-Regular-66" transform="translate(739.399796 0)"/>
     <use xlink:href="#STIXTwoText-Regular-72" transform="translate(770.099792 0)"/>
     <use xlink:href="#STIXTwoText-Regular-61" transform="translate(808.099777 0)"/>
     <use xlink:href="#STIXTwoText-Regular-63" transform="translate(856.099762 0)"/>
     <use xlink:href="#STIXTwoText-Regular-74" transform="translate(900.699753 0)"/>
     <use xlink:href="#STIXTwoText-Regular-61" transform="translate(932.199738 0)"/>
     <use xlink:href="#STIXTwoText-Regular-6c" transform="translate(980.199722 0)"/>
     <use xlink:href="#STIXTwoText-Regular-20" transform="translate(1008.49971 0)"/>
     <use xlink:href="#STIXTwoText-Regular-53" transform="translate(1031.999695 0)"/>
     <use xlink:href="#STIXTwoText-Regular-70" transform="translate(1082.399689 0)"/>
     <use xlink:href="#STIXTwoText-Regular-65" transform="translate(1136.099686 0)"/>
     <use xlink:href="#STIXTwoText-Regular-63" transform="translate(1182.49968 0)"/>
     <use xlink:href="#STIXTwoText-Regular-74" transform="translate(1227.09967 0)"/>
     <use xlink:href="#STIXTwoText-Regular-72" transform="translate(1258.599655 0)"/>
     <use xlink:href="#STIXTwoText-Regular-75" transform="translate(1296.59964 0)"/>
     <use xlink:href="#STIXTwoText-Regular-6d" transform="translate(1353.599625 0)"/>
    </g>
   </g>
   <g id="LineCollection_2">
    <path d="M 166.749348 42.132597 
L 246.21917 42.132597 
" clip-path="url(#pdc6c98555e)" style="fill: none; stroke: #984700; stroke-width: 2.25"/>
   </g>
  </g>
 </g>
 <defs>
  <clipPath id="pdc6c98555e">
   <rect x="47.544615" y="21.833677" width="381.455145" height="223.288114"/>
  </clipPath>
 </defs>
</svg>
